<svg
    width="130"
    height="130"
    viewBox="0 0 130 130"
    version="1.1"
    id="svg1"
    xmlns="http://www.w3.org/2000/svg"
    xmlns:svg="http://www.w3.org/2000/svg">
    <g
        transform="matrix(1.0027318,0,0,1.0027318,-40.960685,-82.677844)"
        style="display:inline"
        id="g1">
        <path
            style="display:inline;fill:#dcab04;stroke-width:0.999716"
            d="m 102.91154,212.03666 c -30.227377,-1.31933 -55.484819,-23.27532 -60.986087,-53.01455 -4.46062,-24.11349 5.164655,-48.81352 24.758036,-63.533324 22.055708,-16.569594 52.042321,-17.417658 74.977361,-2.12041 24.20089,16.141504 34.67815,46.491364 25.59163,74.132274 -9.06394,27.57213 -35.39663,45.79936 -64.34094,44.53601 z m 5.70284,-2.33475 c 33.48602,-1.69013 59.53973,-29.01832 59.54855,-62.46162 0.009,-34.10821 -27.35468,-61.891584 -61.49952,-62.44263 -33.751693,-0.544649 -61.75649,25.72934 -63.420809,59.50115 -1.210879,24.57106 12.26988,47.68363 34.276283,58.76615 8.119551,4.08906 16.124704,6.16838 25.632766,6.65795 0.87562,0.045 4.42341,0.032 5.46273,-0.021 z m -4.77537,-6.27295 c 2e-5,-1.15558 0.008,-1.61985 0.0179,-1.03171 0.01,0.58823 0.01,1.53367 -3e-5,2.10111 -0.01,0.56744 -0.0179,0.086 -0.0179,-1.0694 z m -0.67565,-19.87017 c 0.001,-0.099 0.0147,-0.13227 0.0299,-0.074 0.0152,0.058 0.0142,0.13946 -0.002,0.18015 -0.0164,0.041 -0.0289,-0.01 -0.0277,-0.10627 z m 2.76828,-1.26065 c 3.3e-4,-0.19805 0.0115,-0.27183 0.0249,-0.16396 0.0134,0.10787 0.0131,0.26993 -6.1e-4,0.3602 -0.0137,0.09 -0.0246,0 -0.0243,-0.19624 z m 35.39905,-0.83307 c 0,-0.012 0.0473,-0.06 0.10505,-0.10497 0.0952,-0.075 0.0974,-0.073 0.0227,0.023 -0.0784,0.1 -0.12771,0.13176 -0.12771,0.082 z m -38.10508,-2.43852 c 0,-0.11557 0.0124,-0.16286 0.0275,-0.10507 0.0151,0.058 0.0151,0.15235 0,0.21004 -0.0151,0.058 -0.0275,0.01 -0.0275,-0.10497 z m 0.0613,-4.71239 c 6.7e-4,-0.13217 0.013,-0.17905 0.0273,-0.10437 0.0144,0.075 0.0138,0.18275 -0.001,0.24013 -0.015,0.057 -0.0268,0 -0.0261,-0.13576 z m 2.70135,-2.94158 c 6.7e-4,-0.13207 0.013,-0.17895 0.0273,-0.10438 0.0144,0.075 0.0138,0.18275 -9.9e-4,0.24014 -0.015,0.057 -0.0268,0 -0.0261,-0.13576 z M 60.35513,147.89561 c 0.003,-0.07 0.01709,-0.084 0.03629,-0.036 0.0174,0.043 0.0152,0.095 -0.005,0.11506 -0.01989,0.02 -0.03409,-0.015 -0.03149,-0.079 z m 0,-0.24014 c 0.003,-0.07 0.01709,-0.084 0.03629,-0.036 0.0174,0.043 0.0152,0.095 -0.005,0.11507 -0.01989,0.02 -0.03409,-0.016 -0.03149,-0.079 z m 0,-0.90045 c 0.003,-0.07 0.01709,-0.084 0.03629,-0.036 0.0174,0.043 0.0152,0.095 -0.005,0.11507 -0.01989,0.02 -0.03409,-0.015 -0.03149,-0.079 z m 90.76523,-1.32063 c 0.003,-0.07 0.0171,-0.084 0.0363,-0.036 0.0173,0.043 0.0152,0.095 -0.005,0.11507 -0.0199,0.02 -0.0341,-0.015 -0.0315,-0.079 z M 73.226806,115.75425 c 0.05978,-0.066 0.122165,-0.12007 0.13867,-0.12007 0.0165,0 -0.0189,0.054 -0.07868,0.12007 -0.05978,0.066 -0.122154,0.12006 -0.138669,0.12006 -0.0165,0 0.01889,-0.054 0.07868,-0.12006 z m 34.535964,-13.90803 c 0.0433,-0.017 0.0951,-0.015 0.11506,0.01 0.0199,0.02 -0.0155,0.034 -0.0788,0.032 -0.07,0 -0.0842,-0.017 -0.0363,-0.036 z"
            id="path119" />
        <g
            id="g520"
            style="display:inline;mix-blend-mode:normal;fill:#dcab04;fill-opacity:1;fill-rule:nonzero"
            transform="matrix(0.99971074,0,0,0.99972191,-614.51078,2424.8353)">
            <path
                style="display:inline;fill:#280b0b;fill-opacity:1;fill-rule:nonzero"
                d="m 692.0735,-2313.4578 c 0,-0.1851 3.40518,-2.5711 5.25413,-3.6816 1.57737,-0.9474 4.83545,-2.6161 4.92771,-2.5238 0.0237,0.024 -1.29348,3.5155 -2.09008,5.5405 l -0.25983,0.6605 -3.91597,0.015 c -2.15378,0.01 -3.91596,0 -3.91596,-0.011 z"
                id="path489" />
            <path
                style="display:inline;fill:#501616;fill-opacity:1;fill-rule:nonzero"
                d="m 745.78326,-2310.8051 c -0.0743,-0.1937 -1.58099,-6.0775 -1.56132,-6.0972 0.0587,-0.059 2.13566,1.3388 3.44732,2.3194 1.38185,1.0331 3.33912,2.6928 4.14923,3.5184 l 0.32821,0.3345 h -3.16733 c -2.47847,0 -3.17358,-0.016 -3.19611,-0.075 z"
                id="path488" />
            <path
                style="display:inline;fill:#dcab04;fill-opacity:1;fill-rule:nonzero"
                d="m 704.69264,-2306.6679 c -1.85452,-2.9839 -3.37186,-5.4665 -3.37186,-5.5169 0,-0.078 1.21762,-3.3938 2.67661,-7.2885 l 0.4073,-1.0873 0.57471,-0.2272 c 1.6502,-0.6525 4.47313,-1.4607 6.57944,-1.8837 8.94785,-1.7968 18.11321,-0.912 26.43869,2.5522 1.33974,0.5574 2.94695,1.3432 2.97986,1.4569 0.2484,0.8579 2.01951,8.1661 2.00102,8.2569 -0.0141,0.069 -0.65821,1.0599 -1.43135,2.2015 -0.77314,1.1416 -2.13529,3.1742 -3.02699,4.517 l -1.62128,2.4413 H 722.48165 708.0645 Z"
                id="path487" />
            <path
                style="display:inline;fill:#dcab04;fill-opacity:1;fill-rule:nonzero"
                d="m 679.13185,-2272.0651 c -2.14589,-2.0099 -3.95127,-3.7186 -4.01196,-3.7973 -0.21459,-0.2781 -0.14935,-4.1905 0.11332,-6.7955 0.96391,-9.5594 5.09421,-18.7309 11.70907,-26.0005 0.91381,-1.0043 2.72816,-2.7947 2.89708,-2.8589 0.0773,-0.029 2.17962,-0.053 4.68497,-0.053 l 4.54468,7e-4 0.26599,0.4647 c 0.14629,0.2556 1.6122,2.8141 3.25756,5.6855 1.80534,3.1506 2.99158,5.2817 2.99158,5.3742 0,0.084 -0.49786,1.5991 -1.10636,3.366 -0.6085,1.7669 -2.65182,7.6981 -4.54073,13.1804 -1.88891,5.4823 -3.50096,10.1632 -3.58235,10.402 l -0.14798,0.4341 -0.58044,0.1858 c -0.31924,0.1021 -2.41789,0.7801 -4.66366,1.5066 -3.16954,1.0254 -7.28914,2.3551 -7.86765,2.5396 -0.0338,0.011 -1.81723,-1.6248 -3.96312,-3.6346 z"
                id="path486" />
            <path
                style="display:inline;fill:#dcab04;fill-opacity:1;fill-rule:nonzero"
                d="m 755.48343,-2266.2792 c -1.23848,-0.5142 -4.12663,-1.7083 -6.41812,-2.6534 l -4.16635,-1.7185 -3.56737,-13.9296 c -1.96206,-7.6614 -3.58095,-14.0108 -3.59755,-14.1099 -0.0286,-0.1707 1.88659,-3.0925 6.29766,-9.6074 l 0.46765,-0.6907 h 4.6271 c 4.16271,0 4.6431,0.01 4.78648,0.097 0.18491,0.1131 1.27844,1.3752 2.20466,2.5447 4.74032,5.9852 7.93874,13.2919 9.14792,20.8982 0.62983,3.9619 0.69738,8.7133 0.18138,12.7581 -0.16131,1.2645 -0.3908,2.6121 -0.45487,2.6712 -0.0776,0.072 -7.2116,4.6855 -7.23577,4.6798 -0.0116,0 -1.03435,-0.4257 -2.27282,-0.9399 z"
                id="path485" />
            <path
                style="display:inline;fill:#241c1c;fill-opacity:1;fill-rule:nonzero"
                d="m 678.54716,-2260.3871 c -1.42196,-3.3239 -2.47552,-7.0177 -3.01237,-10.5616 -0.0851,-0.5614 -0.1701,-1.1127 -0.18898,-1.225 l -0.0343,-0.2042 0.19957,0.1679 c 0.10976,0.092 1.40174,1.3056 2.87107,2.6961 1.46932,1.3906 2.80387,2.6521 2.96567,2.8034 l 0.29418,0.2751 -0.33344,0.9259 c -0.56565,1.5706 -2.14222,5.8399 -2.22424,6.0231 -0.0761,0.17 -0.0867,0.1522 -0.53712,-0.9007 z"
                id="path484" />
            <path
                style="display:inline;fill:#dcab04;fill-opacity:1;fill-rule:nonzero"
                d="m 714.04414,-2261.1334 c -3.21637,-2.2802 -8.06938,-5.7186 -10.78446,-7.641 -2.71509,-1.9225 -4.93762,-3.5224 -4.93896,-3.5554 -0.003,-0.063 0.92912,-2.744 3.84946,-11.0787 0.95467,-2.7247 2.59298,-7.4058 3.6407,-10.4025 l 1.90493,-5.4486 14.02043,0.014 14.02042,0.014 3.4644,14.5585 c 1.90542,8.0072 3.45277,14.5774 3.43857,14.6004 -0.0142,0.023 -0.32993,0.2174 -0.70161,0.4321 -1.00651,0.5813 -3.46149,1.9975 -5.32944,3.0744 -0.90821,0.5236 -2.40789,1.3892 -3.33262,1.9236 -1.68142,0.9716 -11.87823,6.8488 -12.79597,7.3753 -0.26746,0.1534 -0.51365,0.2789 -0.54709,0.2789 -0.0334,0 -2.69238,-1.8656 -5.90876,-4.1457 z"
                id="path483" />
            <path
                style="display:inline;fill:#241c1c;fill-opacity:1;fill-rule:nonzero"
                d="m 760.02494,-2256.3887 c -0.0158,-0.049 -0.13973,-0.8452 -0.27542,-1.7699 -0.71834,-4.8952 -0.82719,-5.6453 -0.82058,-5.6542 0.0422,-0.057 5.47088,-3.5537 5.48901,-3.5356 0.0804,0.08 -0.92903,3.3531 -1.51769,4.9207 -0.83228,2.2164 -2.78502,6.3177 -2.87532,6.039 z"
                id="path482" />
            <path
                style="display:inline;fill:#dcab04;fill-opacity:1;fill-rule:nonzero"
                d="m 709.18697,-2234.1098 c -0.0826,-0.028 -0.56894,-0.1629 -1.08085,-0.2999 -11.24676,-3.0104 -21.29009,-10.8467 -27.23546,-21.2502 l -0.50331,-0.8807 1.43475,-4.3139 c 0.78911,-2.3727 1.45719,-4.3353 1.48463,-4.3614 0.0274,-0.026 3.01749,-1.1041 6.64456,-2.3956 l 6.59467,-2.3482 0.16065,0.1126 c 1.54033,1.0798 7.25599,5.1078 11.56963,8.1535 3.03839,2.1453 6.46334,4.5614 7.61099,5.369 l 2.08665,1.4686 -6.1e-4,0.9907 c -6.2e-4,1.0088 -0.0819,7.2832 -0.1539,11.8742 l -0.0398,2.5368 -4.15886,2.7023 c -2.28738,1.4863 -4.18244,2.7002 -4.21126,2.6976 -0.0288,0 -0.11995,-0.028 -0.20252,-0.055 z"
                id="path480" />
            <path
                style="display:inline;fill:#dcab04;fill-opacity:1;fill-rule:nonzero"
                d="m 724.69509,-2235.7171 c -1.51144,-1.2804 -3.06854,-2.5977 -3.46024,-2.9274 l -0.71216,-0.5992 0.037,-2.7022 c 0.0203,-1.4861 0.0403,-4.7422 0.0444,-7.2357 0.004,-2.4934 0.0198,-4.6568 0.0349,-4.8075 l 0.0274,-0.274 11.8481,-6.8266 c 6.51646,-3.7546 11.8796,-6.8266 11.91808,-6.8266 0.0665,0 1.87276,0.8053 8.04857,3.5882 1.50269,0.6771 3.17801,1.4317 3.72294,1.6769 0.54493,0.2452 1.02051,0.4781 1.05684,0.5176 0.0363,0.039 0.1923,0.9636 0.3466,2.0535 0.15429,1.0898 0.42374,2.963 0.59878,4.1625 l 0.31824,2.1809 -0.50955,0.7614 c -5.84059,8.7268 -14.92375,15.392 -25.00984,18.3521 -1.73098,0.508 -4.91363,1.2341 -5.40954,1.2341 -0.11326,0 -0.8578,-0.5976 -2.90044,-2.328 z"
                id="path479" />
            <path
                style="display:inline;fill:#550000;fill-opacity:1;fill-rule:nonzero"
                d="m 717.29336,-2232.8518 c -1.45168,-0.1026 -4.14646,-0.4147 -4.4426,-0.5144 -0.0868,-0.029 0.65684,-0.5311 4.84523,-3.2704 l 1.81374,-1.1862 2.79115,2.3807 c 1.53513,1.3094 2.7842,2.3877 2.77571,2.3961 -0.16578,0.1658 -6.09392,0.3137 -7.78323,0.1942 z"
                id="path118" />
        </g>
        <g
            id="g521"
            transform="matrix(1.6276367,0,0,1.6297481,-1359.3986,4157.1391)"
            style="display:inline">
            <path
                id="path613"
                d="m 900.05817,-2423.1275 c 0,0 0,0 0,0 20.60736,0 37.31252,-16.7053 37.3125,-37.3125 h -6.32812 c 10e-6,17.1123 -13.87203,30.9843 -30.98438,30.9843 0,0 0,0 0,0 z"
                style="display:inline;fill:#e11b29;fill-opacity:1;stroke:none;stroke-width:0.264999" />
            <path
                d="m 869.07412,-2460.44 c -10e-6,17.1123 13.87182,30.9842 30.98416,30.9842 v 6.3283 c -20.60734,0 -37.31247,-16.7053 -37.31245,-37.3125 z"
                style="display:inline;fill:#263684;stroke-width:0.264999"
                id="path615" />
            <path
                id="path616"
                style="display:inline;fill:#fdcb00;fill-opacity:1;stroke:none;stroke-width:0.264999"
                d="m 864.54297,-2482.9767 c 0,0 0,1e-4 0,1e-4 -2e-5,20.6074 16.70512,37.3125 37.3125,37.3125 20.60737,0 37.31252,-16.7051 37.3125,-37.3125 0,0 0,-1e-4 0,-1e-4 z m 68.29687,0 c 0,0 0,1e-4 0,1e-4 2e-5,17.1124 -13.87202,30.9844 -30.98437,30.9844 -17.11236,0 -30.98439,-13.872 -30.98438,-30.9844 0,0 0,-1e-4 0,-1e-4 z"
                transform="matrix(1,0,0,-1,-1.7971355,-4943.4104)" />
        </g>
        <g
            id="g743"
            transform="matrix(1.6123131,0.56808644,-0.56809279,1.6123311,15.15625,-150.94458)"
            style="display:inline">
            <path
                d="m 111.18777,152.63112 c -0.0619,0 -0.0973,0.0138 -0.10033,0.0345 -0.001,0.0115 0.005,0.023 0.0184,0.0368 0.0137,0.0138 0.0348,0.0276 0.0618,0.0437 0.0538,0.0299 0.13196,0.0644 0.22745,0.0988 0.5729,0.21123 1.75901,0.47405 1.91581,0.37775 0.009,0 0.0103,-0.0138 0.003,-0.023 -0.007,-0.0115 -0.0211,-0.0207 -0.0427,-0.0333 -0.0432,-0.0253 -0.11469,-0.0586 -0.20844,-0.0942 -0.18758,-0.0724 -0.46499,-0.16066 -0.78628,-0.24696 -0.48191,-0.12952 -0.90343,-0.20203 -1.08914,-0.19422 z"
                style="display:inline;fill:#dcab04;stroke-width:1.1492"
                id="path652" />
            <path
                d="m 110.07604,152.97313 c -0.0752,-8.1e-4 -0.13738,0 -0.1835,0.0172 v 6.9e-4 c -0.002,5.8e-4 -0.003,0 -0.006,0 -0.0233,0.0115 -0.0437,0.0161 -0.0576,0.0264 -0.0153,0.0115 -0.0244,0.0276 -0.0261,0.046 -0.002,0.0172 0.008,0.0368 0.0326,0.0586 0.024,0.0218 0.0609,0.046 0.11159,0.0724 0.10159,0.0529 0.25708,0.11642 0.46738,0.18939 0.21028,0.0736 0.4757,0.15595 0.79695,0.24949 0.32128,0.0931 0.69858,0.19755 1.1331,0.31235 l 0.71859,0.18939 -0.74472,-0.47266 c -0.002,0 -0.006,0 -0.008,0 -0.15488,-0.0977 -0.35381,-0.1902 -0.56951,-0.27685 -0.0221,0 -0.0765,-0.0184 -0.0956,-0.0241 -0.94109,-0.2465 -1.77253,-0.3266 -1.53098,-0.35395 0.006,0 0.0148,0 0.0273,0 0.0877,0 0.33698,0.0471 0.61703,0.0965 0.0996,0.0172 0.21364,0.0391 0.32128,0.0586 -0.38732,-0.11032 -0.76366,-0.18502 -1.00483,-0.18767 z"
                style="display:inline;fill:#dcab04;stroke-width:1.1492"
                id="path651" />
            <path
                d="m 104.17303,153.60921 c -0.0354,0.0207 -0.07,0.0471 -0.10332,0.0804 -0.0333,0.0333 -0.0657,0.0724 -0.0968,0.11756 -0.0622,0.0896 -0.11935,0.20031 -0.17103,0.32718 -0.0517,0.12687 -0.0978,0.26972 -0.13718,0.42222 -0.0394,0.1525 -0.0721,0.31465 -0.0973,0.48105 -0.0254,0.16652 -0.0433,0.33729 -0.0529,0.506 -0.009,0.1687 -0.0104,0.33545 -0.002,0.49473 0.008,0.15916 0.0253,0.31086 0.0529,0.44887 0.0138,0.069 0.0303,0.13446 0.0493,0.19606 0.019,0.0609 0.0403,0.11906 0.0647,0.17157 0.0354,0.077 0.0691,0.14078 0.10159,0.19307 0.0324,0.0517 0.0639,0.0919 0.0932,0.12055 0.0294,0.0287 0.0569,0.0448 0.0831,0.0494 0.0262,0 0.0507,0 0.0737,-0.023 0.023,-0.0195 0.0446,-0.0506 0.0641,-0.0942 0.0195,-0.0437 0.0374,-0.0988 0.0534,-0.16514 0.0322,-0.13365 0.0572,-0.31442 0.0748,-0.5422 0.0219,-0.28339 0.0364,-0.59976 0.0446,-0.91453 1.2e-4,0 4.7e-4,-0.0115 5.9e-4,-0.0149 1.7e-4,-0.0115 -1.6e-4,-0.0126 0,-0.0195 0.008,-0.31293 0.009,-0.62391 0.005,-0.89787 -1e-5,-2.3e-4 0,-4.6e-4 0,-6.9e-4 -1e-5,-4.6e-4 0,-6.9e-4 0,0 -0.005,-0.27374 -0.0159,-0.50784 -0.0321,-0.67516 -0.001,-0.0138 -0.002,-0.0241 -0.005,-0.0368 -0.008,-0.069 -0.016,-0.12929 -0.0255,-0.16687 -2.5e-4,-9.2e-4 -3.3e-4,0 -5.9e-4,0 -4.2e-4,0 -7.7e-4,0 -0.001,0 -0.005,-0.0172 -0.009,-0.031 -0.0148,-0.0391 -9.2e-4,0 -0.002,0 -0.003,0 -0.006,-0.0115 -0.0116,-0.0115 -0.0178,-0.0115 z"
                style="display:inline;fill:#dcab04;stroke-width:1.1492"
                id="path650" />
            <path
                d="m 120.11654,128.28612 c -0.0638,-0.0356 -1.89331,0.49059 -4.06501,1.16874 -2.79451,0.87282 -5.44679,1.99788 -7.0967,2.93735 h 0.001 c -0.98894,0.56587 -1.61562,1.0675 -1.69372,1.41226 -0.0623,0.27523 -0.91967,1.43638 -1.90512,2.5803 -1.48804,1.72747 -1.89151,2.38079 -2.38021,3.85602 -0.32366,0.97682 -0.92422,2.39815 -1.335,3.15812 -0.41088,0.75985 -0.78644,1.74115 -0.83439,2.18015 -0.068,0.62206 -0.12921,0.70779 -0.27674,0.38958 -0.104,-0.22456 -0.0913,-0.76066 0.0279,-1.19138 l 0.21677,-0.7833 -0.75778,0.41935 c -0.528076,0.2935 -1.036286,0.33327 -1.678862,0.13066 -0.50674,-0.15974 -0.866531,-0.17238 -0.799337,-0.0276 0.06723,0.14491 0.180436,0.23042 0.252387,0.18939 0.127021,-0.0724 1.320213,0.92947 1.456163,1.22275 0.03723,0.0804 -0.443315,0.0115 -1.067182,-0.1656 -0.623832,-0.17135 -1.326361,-0.20203 -1.561269,-0.0678 -0.234919,0.13376 -0.744773,0.27282 -1.1331,0.3089 -0.710837,0.0667 -4.23355,1.72874 -4.358376,2.05707 -0.110438,0.29063 0.447912,0.82765 0.707298,0.67998 0.406622,-0.23145 1.609674,0.0632 1.685981,0.41394 0.09194,0.42222 1.104186,0.86087 2.621325,1.13668 0.768643,0.13974 1.385166,0.43888 1.73527,0.84156 0.298654,0.34338 0.674235,0.65458 0.834388,0.69181 2.193004,0.5099 5.087854,4.76574 3.811424,5.60316 -0.15607,0.10228 -0.5298,0.37131 -0.83081,0.59735 -0.3007,0.22674 -0.70173,0.5253 -0.89081,0.66332 -0.18894,0.13837 -0.3252,0.51002 -0.21616,0.80835 0.2072,0.5669 0.52502,2.28266 -2.481766,1.43949 -0.677902,-0.19008 -1.022042,0.3312 -0.820725,0.76548 0.06688,0.14422 0.0092,0.32614 -0.128273,0.4044 -0.138985,0.0793 -0.355368,-0.0839 -0.486376,-0.36636 -0.283979,-0.61264 -0.568429,-0.52634 -0.445994,0.13423 0.139881,0.75456 0.711712,0.9713 1.693117,0.64194 0.689865,-0.23145 1.196134,-0.17353 2.079122,0.23754 0.973365,0.45336 1.393515,0.47967 2.528675,0.15859 0.74868,-0.2118 1.68915,-0.47876 2.09101,-0.59207 1.72172,-0.48749 5.66217,-0.49657 3.96939,-3.98071 -0.32127,-0.66125 -0.34151,-0.89856 -1.12716,-1.43719 -0.16576,-0.11378 -1.61791,0.13457 -1.74417,0.24294 -0.15574,0.13307 -0.36544,0.4491 10e-4,0.7179 0.15677,0.11504 1.11743,-0.23857 1.57433,-0.0839 0.79536,0.26845 1.46764,2.44458 0.59387,2.64442 l -2.14207,0.58679 c -1.51688,0.41566 -2.25274,0.56839 -2.66646,0.67642 -1.20499,0.31465 -2.43943,-2.2506 -1.33798,-2.78049 0.30637,-0.14733 0.84374,-0.5476 1.19367,-0.88903 0.51583,-0.50323 0.65261,-0.54495 0.72392,-0.22099 0.0484,0.21985 -0.0577,0.53013 -0.23635,0.6878 -0.25265,0.22375 -0.24399,0.46094 0.0392,1.07186 0.34494,0.74422 0.3691,0.75387 0.47331,0.19008 0.14531,-0.78652 0.28307,-0.83157 0.57961,-0.19181 0.14545,0.31374 0.30994,0.4359 0.40264,0.29926 0.0863,-0.12665 0.007,-0.49979 -0.17578,-0.82961 -0.29411,-0.5307 -0.25312,-0.69182 0.35216,-1.40157 0.37615,-0.44106 0.63882,-0.89856 0.58437,-1.016 -0.21861,-0.47164 0.48761,-0.93476 1.45021,-0.95085 0.88775,-0.0149 1.08383,0.0862 1.52268,0.78214 0.63452,1.00601 1.26945,1.06026 2.787,0.23996 0.61811,-0.33408 1.21998,-0.55334 1.3374,-0.48761 0.37716,0.21122 0.83124,-0.2157 0.64849,-0.60988 -0.0983,-0.21203 -0.0285,-0.46634 0.15679,-0.57196 0.19519,-0.11147 0.25458,-0.35935 0.14372,-0.59861 -0.12157,-0.26225 -0.0723,-0.40648 0.12886,-0.40441 0.17483,0 0.2703,-0.1 0.21201,-0.22559 -0.0584,-0.12583 0.0429,-0.36027 0.22567,-0.52024 0.2709,-0.23823 0.0441,-0.37177 -1.23346,-0.72756 -2.73001,-0.76019 -4.37911,-1.05715 -4.54842,-0.81834 -0.22192,0.31292 -1.94836,-0.22766 -2.66645,-0.8349 -0.77999,-0.65964 -0.69378,-1.06381 0.41867,-1.96099 0.60075,-0.48451 0.8302,-0.81869 0.70016,-1.01785 -0.14024,-0.21467 -0.0172,-0.34005 0.44956,-0.45669 0.38799,-0.0965 0.63569,-0.29649 0.62593,-0.50243 -0.009,-0.18767 0.12128,-0.419 0.28863,-0.51427 0.16735,-0.0954 0.23765,-0.42371 0.15618,-0.72986 -0.12341,-0.46393 -0.0447,-0.5808 0.47093,-0.7002 0.44404,-0.10343 0.54619,-0.20709 0.36286,-0.36936 -0.1617,-0.14319 -0.1289,-0.29787 0.0885,-0.42164 0.22155,-0.12618 0.2668,-0.36085 0.12768,-0.66102 -0.14786,-0.3189 -0.0948,-0.52553 0.16866,-0.6586 0.22171,-0.11148 0.30437,-0.31845 0.19538,-0.48807 -0.104,-0.16192 -0.0306,-0.38406 0.16272,-0.49416 0.24385,-0.13882 0.26773,-0.29994 0.0784,-0.52679 -0.1971,-0.23604 -0.15849,-0.39176 0.13898,-0.56115 0.25479,-0.14503 0.34401,-0.38039 0.23457,-0.61643 -0.0973,-0.20985 -0.0599,-0.44773 0.0831,-0.5291 0.14303,-0.0816 0.16075,-0.23616 0.0392,-0.34395 -0.12621,-0.11147 -0.0307,-0.30431 0.22329,-0.44888 0.33618,-0.19146 0.37518,-0.33672 0.15856,-0.59632 -0.22445,-0.26903 -0.18004,-0.38429 0.20548,-0.53082 0.2708,-0.10342 0.54357,-0.32372 0.60574,-0.49059 0.0618,-0.16767 0.33788,-0.33947 0.61287,-0.38303 0.37045,-0.0586 0.45382,-0.17973 0.32188,-0.46439 -0.15628,-0.33717 -0.0657,-0.39417 0.73224,-0.4668 0.86058,-0.0781 0.96052,-0.18031 0.65503,-0.66872 -0.0707,-0.11263 0.31581,-0.36074 0.85933,-0.5499 0.63092,-0.21961 0.98279,-0.46393 0.97275,-0.67584 -0.009,-0.18238 0.44492,-0.60471 1.00837,-0.93763 1.88523,-1.11507 1.84246,-1.64681 -0.0973,-1.20678 -0.62944,0.14285 -1.30774,0.21433 -1.50722,0.15917 -0.26904,-0.0747 -0.24013,-0.12871 0.11227,-0.21146 1.79212,-0.41865 3.51457,-1.09587 3.85063,-1.512 l 0.38958,-0.48278 -0.58496,0.10113 c -0.49121,0.0862 -0.44867,0.0172 0.26665,-0.42107 0.73942,-0.45404 1.07335,-1.04876 0.70432,-1.2555 z m -6.13582,5.11624 c 0.10572,2.3e-4 0.21717,0.0115 0.33553,0.0333 0.76987,0.14664 1.38124,0.0781 1.42112,0.18169 -1e-4,-5.8e-4 0.001,-10e-4 0.001,0 v 0 c -1.4e-4,-4.6e-4 -0.001,-8.1e-4 -0.001,0 0.0138,0.0954 -1.29512,0.023 -1.69846,-0.0149 -0.71754,-0.0712 -1.31758,0.19249 -1.15566,0 0.0298,-0.0356 0.23516,-0.0862 0.47271,-0.12596 0.18731,-0.031 0.39218,-0.0735 0.62476,-0.0735 z m -2.42892,1.50775 c 0.0998,6.9e-4 0.20642,0.0115 0.32128,0.0345 0.74922,0.15652 1.31857,0.0816 1.36649,0.1895 v 0 c 0.0447,0.1 -1.21623,0.0218 -1.60462,-0.0195 -0.68654,-0.0735 -1.21585,0.19077 -1.09034,-0.0115 0.0231,-0.0356 0.21029,-0.0862 0.42876,-0.12584 0.17231,-0.031 0.35903,-0.0735 0.57843,-0.0724 z m -1.974,1.60291 c 0.0821,3.4e-4 0.16738,0 0.25714,0.0138 0.97568,0.0988 1.71224,-0.0184 1.77743,0.085 v 0.001 c 0.0608,0.0965 -1.57561,0.11492 -2.0803,0.10342 -0.89203,-0.0241 -1.57103,0.28386 -1.414,0.0759 0.0288,-0.0379 0.2696,-0.10343 0.55171,-0.15859 0.26292,-0.0529 0.55218,-0.12227 0.90802,-0.12055 z m 0.47331,2.09039 c 0.10423,0 0.17096,0.0115 0.193,0.0322 0.0668,0.0919 -1.7297,0.22421 -2.28816,0.24765 -0.9914,0.0391 -1.69624,0.39429 -1.55415,0.17583 0.0264,-0.0402 0.28299,-0.12113 0.58674,-0.19778 0.34838,-0.0885 0.73677,-0.20329 1.27443,-0.18766 0.82182,0.023 1.47535,-0.0667 1.78814,-0.0701 z m -0.22923,1.73231 c 0.0373,-9.2e-4 0.0633,0 0.0767,0.0138 0.0986,0.0781 -1.99603,0.53909 -2.64567,0.66446 -1.14828,0.22157 -1.95343,0.70308 -1.79645,0.45796 0.0292,-0.0437 0.32423,-0.17376 0.67404,-0.30465 0.40114,-0.15078 0.84728,-0.3381 1.4716,-0.41992 1.11328,-0.14664 1.9557,-0.40532 2.21987,-0.41153 z m -0.89317,2.46331 c 0.006,4.6e-4 0.0115,0 0.0154,0 0.12749,0.0494 -2.07846,1.08358 -2.76681,1.38731 -1.21682,0.53656 -1.99367,1.22987 -1.8778,0.94775 0.0216,-0.0517 0.31768,-0.25926 0.67344,-0.48451 0.40791,-0.25857 0.8562,-0.56586 1.52683,-0.82018 1.32384,-0.50266 2.24831,-1.04669 2.42891,-1.03336 z m 2.25906,9.83209 c 0.18571,-0.0115 0.60724,0.0644 1.08914,0.19422 0.64259,0.17272 1.10932,0.3543 1.03393,0.39728 -0.20906,0.12848 -2.24789,-0.38177 -2.22344,-0.55645 0.003,-0.0218 0.0385,-0.0322 0.10032,-0.0345 z m -1.11173,0.34201 c 0.24117,0 0.61751,0.0781 1.00483,0.18766 0.2891,0.0517 0.59801,0.11262 0.95612,0.218 1.00009,0.29477 1.82407,0.45325 1.8588,0.506 0.028,0.0471 -1.56044,-0.34672 -2.15395,-0.50071 0.21889,0.0885 0.42143,0.18203 0.57724,0.28098 l 0.74649,0.47381 -0.72036,-0.18996 c -1.73812,-0.4591 -2.56102,-0.74491 -2.54175,-0.88247 0.003,-0.0391 0.0366,-0.0598 0.0891,-0.0759 0.0461,-0.0126 0.10837,-0.0184 0.1835,-0.0172 z m -0.43351,0.38842 c 0.0884,0 0.34151,0.0644 0.62652,0.14193 0.37369,0.1 0.79896,0.19996 1.30414,0.43773 1.02977,0.48393 1.87077,0.72905 1.90749,0.82191 0.0334,0.0873 -1.75483,-0.61 -2.30063,-0.83558 -0.96463,-0.39889 -1.80443,-0.50278 -1.56485,-0.56415 0.006,0 0.0147,0 0.0273,0 z m -5.4695,0.24766 c 0.10883,-0.0621 0.13919,1.63221 0.0499,2.78405 -0.0707,0.91097 -0.26084,1.0722 -0.54397,0.4614 -0.38999,-0.84133 -0.073,-2.92253 0.4941,-3.24545 z m 5.4309,0.19892 c 0.0446,0 0.30232,0.10688 0.59504,0.24651 0.33605,0.15859 0.72147,0.32637 1.15567,0.63298 0.88529,0.62424 1.63713,0.99911 1.65392,1.08921 0.0148,0.0839 -1.54982,-0.87052 -2.02508,-1.17345 -0.83993,-0.53599 -1.61952,-0.78433 -1.37955,-0.79525 z m -0.12056,0.5684 c 0.0364,-2.3e-4 0.17767,0.10113 0.33732,0.22972 0.19539,0.15687 0.4179,0.31707 0.67937,0.66574 0.53304,0.70963 0.97233,1.09001 0.98938,1.21573 0.0155,0.11699 -0.9139,-0.92407 -1.19722,-1.25906 -0.50073,-0.5923 -0.94331,-0.78502 -0.81478,-0.85098 0.001,-9.2e-4 0.003,0 0.006,0 z"
                style="display:inline;fill:#1a1a1a;stroke-width:1.1492"
                id="path649" />
            <path
                d="m 109.5778,136.51302 c -0.35584,0 -0.6451,0.0678 -0.90802,0.12055 -0.28211,0.0552 -0.52286,0.12066 -0.55171,0.15859 -0.15703,0.20777 0.52197,-0.1 1.414,-0.0759 0.50469,0.0115 2.1411,-0.0115 2.0803,-0.10343 v 0 c -0.0652,-0.10343 -0.80173,0.0138 -1.77743,-0.085 -0.0898,-0.0115 -0.17503,-0.0138 -0.25714,-0.0138 z"
                style="display:inline;fill:#f2f2f2;stroke-width:0.0180189"
                id="path648" />
            <path
                d="m 110.05111,138.60341 c -0.31279,0 -0.96631,0.0931 -1.78814,0.0701 -0.53766,-0.0161 -0.92603,0.0988 -1.27443,0.18767 -0.30375,0.077 -0.56031,0.15755 -0.58674,0.19777 -0.14209,0.21847 0.56275,-0.13675 1.55415,-0.17582 0.55846,-0.023 2.35493,-0.15572 2.28816,-0.24766 -0.0221,-0.0253 -0.0887,-0.0333 -0.193,-0.0322 z"
                style="display:inline;fill:#f2f2f2;stroke-width:0.0190729"
                id="path647" />
            <path
                d="m 109.82188,140.33572 c -0.26418,0.0115 -1.10658,0.26489 -2.21988,0.41152 -0.62433,0.0816 -1.07046,0.26915 -1.4716,0.41992 -0.3498,0.1309 -0.64485,0.26099 -0.67404,0.30465 -0.15698,0.24513 0.64817,-0.23639 1.79646,-0.45795 0.64965,-0.12538 2.74426,-0.58632 2.64566,-0.66447 -0.0133,-0.0115 -0.0392,-0.0149 -0.0767,-0.0138 z"
                style="display:inline;fill:#f2f2f2;stroke-width:0.0206286"
                id="path646" />
            <path
                d="m 108.92871,142.79903 c -0.1806,-0.0138 -1.10506,0.5307 -2.42892,1.03336 -0.67063,0.25431 -1.11892,0.56161 -1.52683,0.82018 -0.35576,0.22524 -0.65184,0.43279 -0.67344,0.4845 -0.11586,0.28213 0.66099,-0.41118 1.8778,-0.94774 0.68835,-0.30374 2.8943,-1.3379 2.76682,-1.38732 -0.005,0 -0.009,0 -0.0154,0 z"
                style="display:inline;fill:#f2f2f2;stroke-width:0.0220256"
                id="path645" />
            <path
                d="m 111.5518,134.91011 c -0.2194,0 -0.40612,0.0414 -0.57843,0.0724 -0.21847,0.0391 -0.40566,0.0896 -0.42876,0.12584 -0.12551,0.20272 0.4038,-0.0621 1.09034,0.0115 0.38839,0.0414 1.64933,0.11894 1.60462,0.0195 v 0 c -0.0479,-0.10803 -0.61727,-0.0333 -1.36649,-0.18951 -0.11492,-0.0241 -0.22154,-0.0333 -0.32128,-0.0345 z"
                style="display:inline;fill:#f2f2f2;stroke-width:0.0158209"
                id="path644" />
            <path
                d="m 113.98072,133.40236 c -0.23258,-5.7e-4 -0.43744,0.0425 -0.62476,0.0736 -0.23755,0.0402 -0.44294,0.0908 -0.47271,0.12595 -0.16192,0.19249 0.43811,-0.0712 1.15566,0 0.40616,0.0391 1.7324,0.11262 1.69965,0.0138 v 0 c -0.0353,-0.10457 -0.64928,-0.0356 -1.42231,-0.18295 -0.11836,-0.023 -0.22982,-0.0333 -0.33553,-0.0333 z"
                style="display:inline;fill:#f2f2f2;stroke-width:0.0161863"
                id="path643" />
            <path
                d="m 109.64253,153.36155 c -0.0126,-6.8e-4 -0.0218,1.2e-4 -0.0273,0 -0.23959,0.0609 0.6002,0.16526 1.56484,0.56415 0.54582,0.22559 2.33407,0.92292 2.30063,0.83558 -0.0368,-0.0931 -0.87771,-0.33798 -1.90749,-0.82191 -0.50517,-0.23777 -0.93045,-0.33775 -1.30413,-0.43773 -0.28503,-0.077 -0.53819,-0.13744 -0.62652,-0.14192 z"
                style="display:inline;fill:#f2f2f2;stroke-width:0.0163404"
                id="path642" />
            <path
                d="m 109.60393,153.80813 c -0.23997,0.0115 0.53961,0.25926 1.37955,0.79525 0.47526,0.30293 2.03991,1.25734 2.02508,1.17345 -0.0168,-0.0896 -0.76862,-0.46497 -1.65392,-1.08921 -0.4342,-0.30661 -0.81962,-0.47439 -1.15567,-0.63298 -0.29273,-0.13929 -0.55045,-0.24651 -0.59504,-0.24651 z"
                style="display:inline;fill:#f2f2f2;stroke-width:0.0154161"
                id="path641" />
            <path
                d="m 109.48337,154.37653 c -0.002,0 -0.005,2.3e-4 -0.006,0 -0.12853,0.0655 0.31405,0.25868 0.81478,0.85098 0.28334,0.33499 1.21274,1.37617 1.19723,1.25906 -0.017,-0.12572 -0.45635,-0.5061 -0.98938,-1.21573 -0.26149,-0.34867 -0.48399,-0.50887 -0.67937,-0.66574 -0.15965,-0.12894 -0.30084,-0.22995 -0.33733,-0.22972 z"
                style="display:inline;fill:#f2f2f2;stroke-width:0.0137237"
                id="path640" />
            <path
                d="m 110.14256,153.00519 c -0.0125,-3.5e-4 -0.0217,-2.3e-4 -0.0273,0 -0.24155,0.0276 0.58988,0.10687 1.53099,0.35395 0.5325,0.13951 2.27863,0.5738 2.24956,0.52438 -0.0347,-0.0529 -0.8587,-0.21122 -1.8588,-0.50599 -0.49143,-0.14503 -0.91019,-0.21122 -1.27741,-0.27673 -0.28006,-0.0506 -0.52936,-0.0942 -0.61703,-0.0965 z"
                style="display:inline;fill:#f2f2f2;stroke-width:0.0121381"
                id="path639" />
            <path
                style="fill:#dcab04;fill-opacity:1;stroke:none;stroke-width:0.372486"
                d="m 101.21366,146.31673 1.51862,0.0287 0.85386,-0.82076 0.50796,-3.60883 c 0,0 0.6912,-1.71817 1.40721,-3.27028 1.29265,-2.8021 3.81969,-5.61626 3.81969,-5.61626 0,0 -1.79069,0.83915 -4.35021,4.61369 -1.3845,2.04179 -2.29569,4.48602 -2.41932,4.75585 -0.12369,0.26984 -0.34863,1.50557 -0.54717,1.71507 -0.42694,0.45049 -0.79064,2.20313 -0.79064,2.20313 z"
                id="path660" />
        </g>
        <g
            id="g742"
            style="display:inline">
            <path
                style="fill:#ffffff;fill-opacity:1;fill-rule:nonzero;stroke:none;stroke-width:0.264999"
                id="path667"
                d="m 2325.5938,-9063.2422 -18.8054,-9.3423 -18.357,10.195 3.074,-20.7719 -15.3687,-14.3081 20.7051,-3.4953 8.8586,-19.038 9.7226,18.6116 20.8436,2.542 -14.6963,14.998 z"
                transform="matrix(0.0880039,0,0,0.09184804,-104.00064,1037.5847)" />
            <path
                style="display:inline;fill:#ffffff;fill-opacity:1;fill-rule:nonzero;stroke:none;stroke-width:0.264999"
                id="path667-4"
                d="m 2325.5938,-9063.2422 -18.8054,-9.3423 -18.357,10.195 3.074,-20.7719 -15.3687,-14.3081 20.7051,-3.4953 8.8586,-19.038 9.7226,18.6116 20.8436,2.542 -14.6963,14.998 z"
                transform="matrix(0.0880039,0,0,0.09184804,-91.483579,1037.4232)" />
        </g>
        <path
            style="font-weight:900;font-size:11.2889px;font-family:'Noto Sans';-inkscape-font-specification:'Noto Sans Heavy';letter-spacing:0px;display:inline;fill:#1a1a1a;stroke-width:0.240184"
            d="m 58.036796,112.30048 q 1.72659,-2.38025 3.582879,-1.21626 0.571841,0.35858 0.798329,0.89325 0.223623,0.52103 0.172883,1.15561 l 3.970173,0.014 -1.299388,1.79131 -3.183304,-0.19918 -0.290727,0.40078 2.287377,1.43432 -1.145127,1.57858 -6.281481,-3.93873 z m 1.266646,0.82988 -0.225464,0.31086 1.434011,0.89912 0.213593,-0.29444 q 0.261071,-0.35988 0.260047,-0.69373 -0.0038,-0.34757 -0.443767,-0.62338 -0.30792,-0.19305 -0.611535,-0.10968 -0.312413,0.0778 -0.626885,0.51125 z m 10.750907,-3.568 -2.981872,3.13244 -5.673593,-4.66856 2.981882,-3.13245 1.231661,1.0135 -1.624564,1.70663 0.889976,0.73226 1.505009,-1.58095 1.231662,1.01341 -1.505011,1.58104 1.072739,0.88267 1.624565,-1.70652 z m 4.445055,-3.71581 -1.208454,-0.77753 -1.867081,1.49179 0.637066,1.2341 -1.706138,1.36324 -3.083834,-6.8631 2.068285,-1.65252 6.858237,3.84723 z m -3.681815,-2.37868 q -0.171652,-0.11002 -0.486151,-0.31399 -0.321419,-0.21151 -0.656664,-0.43794 -0.335245,-0.22644 -0.541477,-0.37388 0.133799,0.20529 0.310354,0.5325 0.184605,0.32081 0.354244,0.64059 0.177684,0.3133 0.295389,0.53144 l 0.559724,1.07477 1.223266,-0.97741 z m 6.109069,0.64523 -4.088648,-5.930435 1.724184,-1.027578 3.195336,4.634743 2.45675,-1.4641 0.893314,1.29569 z m 8.59466,-10.531359 q -0.668799,0.251869 -0.829273,0.90837 -0.160475,0.656588 0.23791,1.57099 0.402369,0.923479 0.997089,1.263708 0.590732,0.331048 1.367705,0.03849 0.462254,-0.174085 0.843211,-0.455936 0.39079,-0.285599 0.757684,-0.625999 l 0.649369,1.490497 q -0.378596,0.366096 -0.834498,0.633607 -0.442085,0.272932 -0.992858,0.480312 -1.140878,0.429715 -2.05194,0.283151 -0.91105,-0.146553 -1.581964,-0.766698 -0.674889,-0.629324 -1.10514,-1.616865 -0.430258,-0.987551 -0.367514,-1.894696 0.0628,-0.907145 0.632817,-1.622111 0.575917,-0.727813 1.667615,-1.138914 0.511436,-0.192615 1.119841,-0.29399 0.608414,-0.101466 1.252923,-0.0673 l 0.02529,1.608392 q -0.459267,-0.02972 -0.900477,0.0096 -0.445195,0.02972 -0.887779,0.195936 z m 11.368485,-0.884858 q 0.271196,1.065676 0.102243,1.944243 -0.161073,0.866769 -0.843804,1.48333 -0.672416,0.614289 -1.942541,0.893692 -1.239153,0.272579 -2.14667,0.0091 -0.907516,-0.266725 -1.492375,-0.97951 -0.574538,-0.715137 -0.845732,-1.780815 -0.271204,-1.065677 -0.08949,-1.936991 0.179284,-0.880839 0.864467,-1.487787 0.685172,-0.606948 1.924325,-0.879529 1.259813,-0.277125 2.157002,-0.0087 0.905061,0.257111 1.469277,0.974437 0.572091,0.705528 0.843286,1.771205 z m -5.070206,1.115315 q 0.236999,0.931267 0.712142,1.384315 0.485472,0.450775 1.280596,0.275901 0.826104,-0.18169 1.022166,-0.782435 0.196062,-0.600743 -0.0409,-1.532009 -0.236988,-0.931265 -0.704255,-1.396199 -0.467256,-0.464933 -1.283041,-0.285515 -0.815774,0.179419 -1.019722,0.792048 -0.203938,0.612629 0.03309,1.543894 z m 13.799193,1.770944 -2.05423,0.124539 -0.20103,-2.864852 -2.37191,0.143938 0.20101,2.864847 -2.054237,0.124535 -0.493224,-7.02915 2.054241,-0.124622 0.18306,2.608871 2.37191,-0.143849 -0.18306,-2.608871 2.05424,-0.124625 z m 9.08676,-2.826745 q -0.11997,1.089361 -0.58971,1.867775 -0.4581,0.769588 -1.32065,1.143721 -0.852,0.375095 -2.15041,0.251427 -1.26673,-0.120514 -2.02984,-0.649418 -0.76311,-0.528819 -1.06398,-1.380643 -0.29031,-0.850778 -0.17032,-1.940138 0.11998,-1.089447 0.59919,-1.857025 0.48031,-0.777453 1.34176,-1.14171 0.86148,-0.364256 2.12821,-0.243653 1.28785,0.122613 2.0404,0.650471 0.76419,0.51903 1.04395,1.368757 0.29138,0.840989 0.1714,1.930436 z m -5.18308,-0.493511 q -0.10485,0.952065 0.18405,1.525018 0.29946,0.573912 1.11229,0.651343 0.84449,0.0804 1.24175,-0.427267 0.39725,-0.507669 0.50209,-1.459647 0.10484,-0.951978 -0.17241,-1.533757 -0.27728,-0.581778 -1.11121,-0.661132 -0.83395,-0.07952 -1.24283,0.437055 -0.40888,0.516409 -0.51373,1.468387 z m 6.13559,4.326071 1.8711,-6.825964 1.98457,0.470266 -1.46228,5.334589 2.82773,0.670048 -0.40881,1.491374 z m 9.21973,2.675371 -3.69597,-1.288962 0.40994,-1.01612 1.01096,-0.0091 1.59136,-3.944332 -0.76129,-0.613154 0.40995,-1.016125 3.69597,1.288968 -0.40994,1.016124 h -1.00723 l -1.59135,3.94433 0.75754,0.622421 z m 6.83506,-3.123003 q -0.64229,-0.305703 -1.28149,0.01048 -0.63917,0.316446 -1.12279,1.194669 -0.48844,0.886869 -0.37636,1.527722 0.11687,0.631945 0.86307,0.987196 0.44393,0.211318 0.92238,0.294948 0.48791,0.0882 1.00484,0.12367 l -0.78826,1.43142 q -0.54551,-0.0271 -1.0613,-0.17269 -0.51118,-0.1325 -1.04011,-0.38428 -1.09568,-0.52156 -1.57216,-1.258291 -0.4765,-0.736625 -0.41053,-1.614143 0.0708,-0.886173 0.59309,-1.834655 0.5223,-0.948398 1.30151,-1.497403 0.7792,-0.549007 1.73379,-0.615601 0.96885,-0.07079 2.01729,0.428316 0.49116,0.233778 0.97152,0.595412 0.48034,0.361718 0.8741,0.837314 l -1.29236,1.06953 q -0.27647,-0.342234 -0.59625,-0.6274 -0.31495,-0.293994 -0.73998,-0.496396 z m 8.1537,7.417875 q -0.68986,0.88765 -1.51534,1.34333 -0.81066,0.45349 -1.75881,0.3764 -0.93956,-0.0717 -1.99747,-0.78208 -1.0321,-0.69339 -1.4085,-1.50614 -0.37636,-0.81277 -0.17876,-1.69028 0.2062,-0.87176 0.89606,-1.759321 0.68987,-0.887655 1.51773,-1.329603 0.83408,-0.449909 1.77603,-0.364786 0.94194,0.08475 1.97406,0.778508 1.04929,0.704914 1.41708,1.511912 0.38259,0.8048 0.16777,1.67068 -0.19998,0.86373 -0.88985,1.75138 z m -4.22304,-2.83715 q -0.60285,0.77571 -0.66086,1.40616 -0.0493,0.63632 0.61289,1.08124 0.68807,0.46222 1.30513,0.2073 0.61704,-0.25484 1.2199,-1.03055 0.60284,-0.77562 0.67566,-1.40835 0.0728,-0.63272 -0.60666,-1.089178 -0.67947,-0.456548 -1.31133,-0.199427 -0.63187,0.2572 -1.23473,1.032805 z m 8.14109,8.28281 q -0.42962,0.4097 -1.04275,0.57043 -0.60554,0.16762 -1.32107,-0.0262 -0.70052,-0.19401 -1.44514,-0.86895 -0.37231,-0.33751 -0.6164,-0.62758 -0.2439,-0.27624 -0.41297,-0.56726 -0.16906,-0.29103 -0.30888,-0.63816 l 1.27408,-1.21512 q 0.22587,0.60434 0.55564,1.12372 0.33719,0.5123 0.70189,0.84282 0.32672,0.29618 0.58979,0.3279 0.26308,0.0315 0.43344,-0.13065 0.20741,-0.19778 0.1054,-0.52453 -0.0871,-0.32686 -0.38925,-1.02794 -0.2175,-0.54156 -0.31383,-1.00091 -0.089,-0.46642 0.0479,-0.8936 0.13675,-0.42719 0.5886,-0.85811 0.51113,-0.4874 1.11019,-0.57821 0.6065,-0.0979 1.23274,0.15285 0.64128,0.25056 1.24912,0.80149 0.53186,0.48207 0.83885,0.98082 0.31439,0.49158 0.50055,0.9359 l -1.55199,0.64627 q -0.19397,-0.46519 -0.44699,-0.85986 -0.23802,-0.39485 -0.52675,-0.6565 -0.28113,-0.25485 -0.51418,-0.287 -0.22548,-0.0254 -0.37362,0.11605 -0.12593,0.12008 -0.12346,0.30143 0.003,0.18143 0.11191,0.50103 0.12441,0.3195 0.34935,0.854 0.22472,0.52061 0.29086,0.96632 0.0813,0.44561 -0.056,0.84483 -0.12211,0.39912 -0.53692,0.79475 z m 2.09061,5.86255 -1.17658,-1.52214 6.1526,-4.11082 2.61325,3.38091 -1.33566,0.89238 -1.43666,-1.85869 -1.17192,0.78304 1.3252,1.71449 -1.33565,0.89237 -1.32521,-1.71448 z m 8.99741,2.9372 q -0.34343,-0.59008 -1.06303,-0.6655 -0.71958,-0.0752 -1.65281,0.39414 -0.94258,0.47429 -1.24022,1.06157 -0.28832,0.58257 0.11069,1.26799 0.23737,0.40779 0.58092,0.72852 0.3486,0.32938 0.75319,0.63063 l -1.52118,0.76539 q -0.43336,-0.3092 -0.76987,-0.70072 -0.34081,-0.37823 -0.62364,-0.86405 -0.58587,-1.00652 -0.53033,-1.86464 0.0556,-0.85803 0.64404,-1.54677 0.59781,-0.69339 1.60571,-1.20053 1.00789,-0.50714 1.98449,-0.54989 0.97663,-0.0428 1.80413,0.40473 0.8419,0.45139 1.40252,1.41455 0.26263,0.45113 0.43853,1.00206 0.17589,0.55092 0.21103,1.15027 l -1.7165,0.2018 q -0.0197,-0.42763 -0.10969,-0.83103 -0.0807,-0.40813 -0.30798,-0.79852 z"
            id="text121" />
    </g>
</svg>