<svg
    width="200"
    height="400"
    viewBox="0 0 200 400"
    version="1.1"
    id="svg1"
    xml:space="preserve"
    xmlns="http://www.w3.org/2000/svg"
    xmlns:svg="http://www.w3.org/2000/svg">
     <g
        id="layer1"
        transform="translate(-77.656909,-42.286432)"
        style="display:inline">
        <path
            style="fill:#000;"
            d="m 80.042189,95.201642 v -24.79873 c 0,-13.35556 2.27321,-28.11648 27.966721,-28.11648 h 141.24948 c 28.78871,0 26.0967,12.74521 26.0967,26.23646 v 65.619518 l 2.30182,1.24872 v 42.93297 l -2.20451,1.30469 v 234.34562 c 0,19.95657 -6.74064,28.31202 -28.16129,28.31202 H 108.02762 c -13.279191,0 -28.169381,-5.66114 -28.169381,-28.32025 V 190.63975 c 0,0 -2.20133,0.19057 -2.20133,-1.75523 0,-1.08253 0.0269,-26.25082 0.0269,-26.25082 0.001,-1.91369 2.31519,-1.83186 2.31519,-1.83186 v -6.27697 c 0,0 -2.27,-0.3239 -2.27,-2.31802 V 126.8997 c 0,-1.69905 2.10322,-1.74123 2.10322,-1.74123 v -13.22064 l -2.08725,-1.4313 V 96.715642 Z"
            id="path9"
        />
        <path
            style="display:inline;fill:#f2f2f2;fill-opacity:1;stroke-width:1.02499"
            d="m 123.64342,53.157791 c -36.16413,0 -35.582645,-0.448231 -35.582645,34.264439 0,0 -0.403866,303.56808 -0.403866,317.83443 0,18.24931 8.883964,27.02977 25.498181,27.02977 16.08384,0 113.26169,-0.27556 129.43606,-0.27556 16.85056,0 24.34268,-9.93415 24.34268,-23.65843 0,-10.19132 0.72308,-316.661069 0.72308,-335.901664 0,-19.240617 -9.56964,-20.079056 -19.63445,-20.079056 -10.06479,0 -18.06528,-0.08529 -18.06528,-0.08529 -3.30139,0 -2.66762,4.65866 -2.66762,7.458278 0,2.799642 0.0874,6.748345 -7.25774,6.748345 -7.34515,0 -84.98195,0.09356 -84.98195,0.09356 0,0 -5.78975,0.373587 -5.78975,-3.576748 0,-3.950359 1.56454,-9.852011 -5.6167,-9.852011 z"
            id="path5"
        />
            <circle
                style="display:inline;fill:#ffffff;fill-opacity:1;stroke-width:0.228373"
                id="path7"
                cx="171.88959"
                cy="59.958038"
                r="2"
            />
            <circle
                style="display:inline;fill:#ffffff;fill-opacity:1;stroke-width:0.228373"
                id="path7-6"
                cx="181.57544"
                cy="59.958038"
                r="2"
            />
    </g>
</svg>