<svg width="192" height="64" viewBox="0 0 192 64" fill="none" xmlns="http://www.w3.org/2000/svg">
<path d="M176.215 8.5929e-05H15.2554C14.6687 8.5929e-05 14.089 8.59291e-05 13.5039 0.00328592C13.014 0.00648591 12.5281 0.0157819 12.0336 0.0236059C10.9592 0.0362487 9.88734 0.130768 8.82733 0.306341C7.76881 0.485737 6.74345 0.823948 5.78593 1.30954C4.82958 1.79923 3.95574 2.43555 3.1961 3.19539C2.43248 3.95309 1.79594 4.8289 1.31096 5.78912C0.824638 6.74744 0.487423 7.77436 0.310959 8.83443C0.132817 9.89315 0.0369573 10.9641 0.0242399 12.0376C0.00939197 12.5282 0.00782397 13.0204 0 13.511V50.4937C0.00782397 50.9905 0.00939197 51.4718 0.0242399 51.9687C0.0369612 53.0422 0.132821 54.1131 0.310959 55.1717C0.486936 56.2324 0.82417 57.2599 1.31096 58.2186C1.79572 59.1757 2.43235 60.048 3.1961 60.8015C3.95286 61.5647 4.82727 62.2015 5.78593 62.6874C6.74345 63.1743 7.7687 63.5145 8.82733 63.6967C9.88752 63.8708 10.9593 63.9654 12.0336 63.9796C12.5281 63.9904 13.014 63.9967 13.5039 63.9967C14.089 63.9999 14.6688 63.9999 15.2554 63.9999H176.215C176.79 63.9999 177.374 63.9999 177.949 63.9967C178.437 63.9967 178.937 63.9904 179.424 63.9796C180.497 63.9662 181.566 63.8716 182.624 63.6967C183.687 63.5132 184.715 63.1731 185.678 62.6874C186.635 62.2012 187.509 61.5644 188.265 60.8015C189.027 60.045 189.665 59.1734 190.156 58.2186C190.639 57.2592 190.973 56.2318 191.146 55.1717C191.325 54.1129 191.424 53.0423 191.443 51.9687C191.449 51.4718 191.449 50.9905 191.449 50.4937C191.462 49.9124 191.462 49.3343 191.462 48.7436V15.2578C191.462 14.6719 191.462 14.0907 191.449 13.511C191.449 13.0204 191.449 12.5282 191.443 12.0376C191.424 10.9639 191.325 9.89323 191.146 8.83436C190.972 7.77491 190.638 6.74807 190.156 5.78906C189.168 3.86439 187.602 2.29772 185.678 1.30939C184.715 0.824991 183.686 0.486869 182.624 0.306197C181.567 0.12985 180.497 0.0352982 179.424 0.0233819C178.937 0.0155739 178.437 0.00619791 177.949 0.00307792C177.374 -0.00012207 176.79 -0.00012207 176.215 -0.00012207V8.5929e-05Z" fill="#A6A6A6"/>
<path d="M13.5118 62.5998C13.0244 62.5998 12.5486 62.5936 12.065 62.5827C11.063 62.5697 10.0634 62.4824 9.07437 62.3217C8.15212 62.1629 7.25871 61.8675 6.4236 61.4451C5.59615 61.0263 4.84144 60.4771 4.1884 59.8186C3.52591 59.1678 2.97435 58.413 2.55559 57.5842C2.13222 56.7499 1.83922 55.8557 1.6868 54.9327C1.5222 53.9408 1.43314 52.938 1.4204 51.9327C1.41025 51.5952 1.39697 50.4717 1.39697 50.4717V13.5109C1.39697 13.5109 1.41112 12.4047 1.42048 12.0797C1.43268 11.076 1.52122 10.0746 1.68532 9.08437C1.83803 8.1588 2.13125 7.262 2.55486 6.42502C2.97208 5.59672 3.52057 4.84139 4.17908 4.1883C4.83684 3.52901 5.59395 2.97699 6.42281 2.55236C7.256 2.13137 8.14773 1.838 9.06812 1.68206C10.0604 1.51976 11.0635 1.43202 12.0689 1.41956L13.5126 1.40002H177.942L179.403 1.42034C180.399 1.43218 181.393 1.51914 182.376 1.68049C183.306 1.83838 184.207 2.13381 185.05 2.55704C186.71 3.4128 188.061 4.76667 188.914 6.42892C189.33 7.26013 189.619 8.14961 189.77 9.06718C189.936 10.0656 190.029 11.0748 190.048 12.0867C190.053 12.5398 190.053 13.0265 190.053 13.5109C190.065 14.1109 190.065 14.682 190.065 15.2578V48.7436C190.065 49.3248 190.065 49.892 190.053 50.4639C190.053 50.9842 190.053 51.4608 190.046 51.9514C190.028 52.9453 189.936 53.9364 189.773 54.917C189.624 55.8467 189.332 56.7479 188.909 57.589C188.487 58.4088 187.939 59.1571 187.284 59.8061C186.63 60.4681 185.874 61.0205 185.045 61.4421C184.205 61.8677 183.305 62.1642 182.376 62.3217C181.387 62.4833 180.387 62.5705 179.385 62.5827C178.917 62.5936 178.426 62.5998 177.95 62.5998L176.215 62.603L13.5118 62.5998Z" fill="black"/>
<path d="M39.6302 32.4809C39.6474 31.1455 40.0021 29.8361 40.6614 28.6746C41.3206 27.513 42.263 26.5371 43.4007 25.8377C42.6779 24.8054 41.7244 23.9559 40.6159 23.3566C39.5074 22.7573 38.2744 22.4248 37.0149 22.3854C34.3281 22.1034 31.7234 23.9931 30.3542 23.9931C28.9586 23.9931 26.8506 22.4134 24.5807 22.4601C23.1124 22.5075 21.6814 22.9345 20.4272 23.6994C19.173 24.4643 18.1384 25.541 17.424 26.8247C14.3296 32.1821 16.6378 40.0558 19.6019 44.3863C21.085 46.5069 22.8182 48.8756 25.0861 48.7916C27.3054 48.6996 28.1343 47.3764 30.8131 47.3764C33.4671 47.3764 34.2448 48.7916 36.5587 48.7382C38.9401 48.6995 40.4405 46.6082 41.8715 44.4676C42.9371 42.9566 43.757 41.2867 44.301 39.5196C42.9175 38.9344 41.7368 37.9549 40.9062 36.7033C40.0756 35.4516 39.6318 33.9831 39.6302 32.4809Z" fill="white"/>
<path d="M35.2594 19.5374C36.5579 17.9786 37.1975 15.9752 37.0426 13.9524C35.0589 14.1607 33.2265 15.1088 31.9105 16.6078C31.2671 17.34 30.7743 18.1919 30.4603 19.1147C30.1463 20.0376 30.0173 21.0132 30.0806 21.986C31.0728 21.9962 32.0544 21.7811 32.9515 21.357C33.8485 20.9328 34.6377 20.3107 35.2594 19.5374Z" fill="white"/>
<path d="M67.6835 43.4234H60.11L58.2913 48.7937H55.0835L62.2569 28.9249H65.5897L72.7631 48.7937H69.5006L67.6835 43.4234ZM60.8944 40.9452H66.8976L63.9382 32.2296H63.8554L60.8944 40.9452Z" fill="white"/>
<path d="M88.2552 41.5515C88.2552 46.053 85.8458 48.9452 82.2099 48.9452C81.2888 48.9934 80.3729 48.7812 79.5668 48.333C78.7607 47.8848 78.0972 47.2186 77.6521 46.4108H77.5833V53.5858H74.6099V34.3077H77.488V36.7171H77.5427C78.0082 35.9132 78.683 35.2505 79.4952 34.7995C80.3074 34.3486 81.2267 34.1262 82.1552 34.1562C85.8317 34.1562 88.2552 37.0624 88.2552 41.5515ZM85.1989 41.5515C85.1989 38.6187 83.6833 36.6905 81.3708 36.6905C79.099 36.6905 77.5708 38.6593 77.5708 41.5515C77.5708 44.4702 79.099 46.4249 81.3708 46.4249C83.6833 46.4249 85.1989 44.5108 85.1989 41.5515Z" fill="white"/>
<path d="M104.199 41.5515C104.199 46.053 101.79 48.9452 98.1537 48.9452C97.2327 48.9934 96.3167 48.7812 95.5106 48.333C94.7046 47.8848 94.041 47.2186 93.5959 46.4108H93.5271V53.5858H90.5537V34.3077H93.4318V36.7171H93.4865C93.952 35.9132 94.6268 35.2505 95.439 34.7995C96.2512 34.3486 97.1705 34.1262 98.099 34.1562C101.776 34.1562 104.199 37.0624 104.199 41.5515ZM101.143 41.5515C101.143 38.6187 99.6272 36.6905 97.3147 36.6905C95.0428 36.6905 93.5147 38.6593 93.5147 41.5515C93.5147 44.4702 95.0428 46.4249 97.3147 46.4249C99.6272 46.4249 101.143 44.5108 101.143 41.5515H101.143Z" fill="white"/>
<path d="M114.737 43.2577C114.957 45.228 116.871 46.5217 119.487 46.5217C121.993 46.5217 123.796 45.228 123.796 43.4514C123.796 41.9092 122.709 40.9858 120.134 40.353L117.559 39.7327C113.91 38.8514 112.216 37.1452 112.216 34.3764C112.216 30.9483 115.204 28.5936 119.446 28.5936C123.644 28.5936 126.523 30.9483 126.619 34.3764H123.618C123.438 32.3936 121.799 31.1968 119.404 31.1968C117.008 31.1968 115.369 32.4077 115.369 34.1702C115.369 35.5749 116.416 36.4014 118.977 37.0342L121.166 37.5717C125.243 38.5357 126.937 40.1733 126.937 43.0795C126.937 46.7966 123.976 49.1248 119.266 49.1248C114.86 49.1248 111.885 46.8513 111.693 43.2576L114.737 43.2577Z" fill="white"/>
<path d="M133.353 30.8796V34.3078H136.108V36.6624H133.353V44.6483C133.353 45.889 133.905 46.4671 135.116 46.4671C135.443 46.4614 135.77 46.4384 136.094 46.3983V48.7389C135.55 48.8406 134.996 48.8867 134.443 48.8764C131.51 48.8764 130.366 47.7748 130.366 44.9655V36.6624H128.26V34.3078H130.366V30.8796H133.353Z" fill="white"/>
<path d="M137.704 41.5515C137.704 36.9937 140.388 34.1296 144.574 34.1296C148.774 34.1296 151.446 36.9936 151.446 41.5515C151.446 46.1218 148.788 48.9733 144.574 48.9733C140.361 48.9733 137.704 46.1218 137.704 41.5515ZM148.416 41.5515C148.416 38.4249 146.983 36.5796 144.574 36.5796C142.165 36.5796 140.733 38.439 140.733 41.5515C140.733 44.6905 142.165 46.5218 144.574 46.5218C146.983 46.5218 148.416 44.6905 148.416 41.5515H148.416Z" fill="white"/>
<path d="M153.897 34.3077H156.733V36.7733H156.802C156.994 36.0033 157.445 35.3227 158.08 34.8461C158.714 34.3695 159.494 34.1259 160.287 34.1561C160.629 34.1549 160.971 34.1922 161.305 34.2671V37.0483C160.873 36.9161 160.421 36.8554 159.969 36.8686C159.537 36.8511 159.107 36.9273 158.707 37.0919C158.307 37.2565 157.948 37.5057 157.653 37.8223C157.359 38.1389 157.137 38.5155 157.002 38.9262C156.867 39.3369 156.822 39.7719 156.871 40.2014V48.7936H153.897L153.897 34.3077Z" fill="white"/>
<path d="M175.014 44.539C174.614 47.1687 172.053 48.9733 168.777 48.9733C164.563 48.9733 161.947 46.1499 161.947 41.6202C161.947 37.0765 164.577 34.1296 168.652 34.1296C172.66 34.1296 175.18 36.8827 175.18 41.2749V42.2937H164.949V42.4734C164.902 43.0065 164.968 43.5435 165.145 44.0489C165.321 44.5542 165.603 45.0163 165.971 45.4044C166.34 45.7924 166.787 46.0976 167.282 46.2997C167.778 46.5018 168.311 46.5962 168.846 46.5765C169.548 46.6423 170.253 46.4796 170.856 46.1125C171.459 45.7454 171.927 45.1935 172.191 44.539L175.014 44.539ZM164.963 40.2156H172.205C172.232 39.7362 172.159 39.2565 171.992 38.8066C171.824 38.3566 171.565 37.9462 171.232 37.601C170.898 37.2557 170.497 36.9832 170.053 36.8004C169.609 36.6177 169.132 36.5287 168.652 36.539C168.168 36.5361 167.688 36.6291 167.24 36.8127C166.792 36.9963 166.384 37.2668 166.041 37.6086C165.698 37.9505 165.427 38.3568 165.241 38.8042C165.056 39.2517 164.962 39.7314 164.963 40.2156V40.2156Z" fill="white"/>
<path d="M56.6841 18.746C56.6841 15.65 58.331 13.7375 60.9841 13.7375C61.9403 13.6901 62.8794 14.004 63.6149 14.617C64.3504 15.2299 64.8285 16.0969 64.9544 17.046H63.4778C63.3539 16.4836 63.0363 15.9826 62.5805 15.6305C62.1246 15.2785 61.5596 15.0979 60.9841 15.1203C59.27 15.1203 58.1981 16.5164 58.1981 18.746C58.1981 20.9695 59.27 22.3648 60.9903 22.3648C61.5448 22.4063 62.0964 22.2533 62.5504 21.9323C63.0043 21.6112 63.3322 21.142 63.4778 20.6054H64.9544C64.8103 21.5319 64.3222 22.37 63.5874 22.9525C62.8527 23.5349 61.9252 23.8188 60.9903 23.7476C58.3373 23.7476 56.6841 21.8359 56.6841 18.746Z" fill="white"/>
<path d="M66.5761 19.9108C66.5308 19.4373 66.585 18.9596 66.7351 18.5083C66.8853 18.057 67.1281 17.6421 67.448 17.2901C67.7679 16.9381 68.1578 16.6569 68.5928 16.4645C69.0278 16.272 69.4981 16.1726 69.9738 16.1726C70.4494 16.1726 70.9198 16.272 71.3547 16.4645C71.7897 16.6569 72.1796 16.9381 72.4995 17.2901C72.8195 17.6421 73.0623 18.057 73.2124 18.5083C73.3625 18.9596 73.4167 19.4373 73.3714 19.9108C73.4176 20.3848 73.3641 20.8631 73.2143 21.3152C73.0646 21.7672 72.8219 22.1829 72.5019 22.5356C72.1819 22.8882 71.7917 23.17 71.3563 23.3629C70.9209 23.5558 70.45 23.6554 69.9738 23.6554C69.4976 23.6554 69.0266 23.5558 68.5913 23.3629C68.1559 23.17 67.7656 22.8882 67.4456 22.5356C67.1257 22.1829 66.883 21.7672 66.7332 21.3152C66.5835 20.8631 66.53 20.3848 66.5761 19.9108ZM71.9089 19.9108C71.9089 18.3491 71.2073 17.4358 69.9761 17.4358C68.7402 17.4358 68.0449 18.3491 68.0449 19.9108C68.0449 21.485 68.7402 22.3913 69.9761 22.3913C71.2074 22.3913 71.9089 21.4788 71.9089 19.9108H71.9089Z" fill="white"/>
<path d="M75.2793 16.3116H76.648V17.4561H76.7543C76.9345 17.045 77.2386 16.7004 77.6239 16.4703C78.0093 16.2403 78.4569 16.1361 78.9043 16.1725C79.2548 16.1461 79.6068 16.199 79.9342 16.3272C80.2616 16.4553 80.5559 16.6555 80.7954 16.9128C81.0349 17.1702 81.2134 17.4781 81.3177 17.8138C81.422 18.1495 81.4495 18.5044 81.398 18.8522V23.5162H79.9762V19.2092C79.9762 18.0514 79.473 17.4756 78.4215 17.4756C78.1835 17.4645 77.9459 17.5051 77.725 17.5944C77.5041 17.6837 77.3051 17.8197 77.1417 17.9932C76.9783 18.1666 76.8544 18.3733 76.7783 18.5991C76.7023 18.8249 76.676 19.0645 76.7012 19.3014V23.5162H75.2793V16.3116Z" fill="white"/>
<path d="M86.2309 16.1726C87.8513 16.1726 88.9106 16.9265 89.0497 18.1968H87.6856C87.5544 17.6679 87.0372 17.3304 86.2309 17.3304C85.4372 17.3304 84.8341 17.707 84.8341 18.2695C84.8341 18.6999 85.1982 18.971 85.9795 19.1499L87.1762 19.4273C88.5466 19.7453 89.1887 20.3343 89.1887 21.3929C89.1887 22.7492 87.9247 23.6554 86.2044 23.6554C84.4903 23.6554 83.3731 22.8812 83.2466 21.6046H84.6701C84.7927 21.9085 85.0139 22.1623 85.2981 22.3253C85.5823 22.4884 85.913 22.5513 86.2372 22.5038C87.1232 22.5038 87.7529 22.107 87.7529 21.5312C87.7529 21.1015 87.4154 20.8234 86.6935 20.6515L85.4372 20.3601C84.0669 20.0359 83.4326 19.421 83.4326 18.3491C83.4325 17.0718 84.6029 16.1726 86.2309 16.1726Z" fill="white"/>
<path d="M90.9839 15.1069L92.6448 12.8312H94.312L92.4526 15.1069H90.9839ZM91.1308 16.3116H92.5464V23.5163H91.1308V16.3116Z" fill="white"/>
<path d="M94.7605 24.2374H96.2151C96.3355 24.76 96.937 25.0975 97.8964 25.0975C99.0807 25.0975 99.7823 24.535 99.7823 23.5827V22.1999H99.6761C99.453 22.5869 99.1273 22.9048 98.735 23.1184C98.3426 23.332 97.8988 23.4329 97.4526 23.41C95.6136 23.41 94.4761 21.9881 94.4761 19.8311C94.4761 17.6343 95.6261 16.1921 97.4667 16.1921C97.924 16.1761 98.3769 16.2862 98.7759 16.5102C99.1749 16.7343 99.5047 17.0636 99.7292 17.4624H99.8417V16.3116H101.204V23.5756C101.204 25.2232 99.9135 26.2685 97.876 26.2685C96.0761 26.2686 94.912 25.4616 94.7605 24.2374ZM99.8089 19.8241C99.8089 18.3889 99.0667 17.4694 97.8558 17.4694C96.6323 17.4694 95.9448 18.3889 95.9448 19.8241C95.9448 21.26 96.6323 22.1796 97.8558 22.1796C99.0745 22.1795 99.8089 21.2671 99.8089 19.8241Z" fill="white"/>
<path d="M109.544 23.5163H108.174V22.3718H108.061C107.879 22.7871 107.571 23.1346 107.18 23.365C106.789 23.5954 106.336 23.697 105.885 23.6554C105.536 23.6801 105.187 23.6265 104.862 23.4985C104.536 23.3705 104.244 23.1713 104.006 22.9156C103.768 22.6599 103.59 22.3541 103.486 22.0207C103.381 21.6873 103.353 21.3348 103.403 20.989V16.3116H104.827V20.6187C104.827 21.7827 105.296 22.339 106.341 22.339C106.583 22.362 106.828 22.3306 107.056 22.2471C107.285 22.1636 107.492 22.0301 107.663 21.8564C107.833 21.6826 107.963 21.473 108.042 21.2428C108.121 21.0126 108.148 20.7676 108.121 20.5257V16.3116H109.544V23.5163Z" fill="white"/>
<path d="M117.902 21.571C117.709 22.2295 117.29 22.7991 116.72 23.1801C116.149 23.5611 115.462 23.7294 114.78 23.6554C114.306 23.6679 113.834 23.577 113.398 23.389C112.962 23.2009 112.572 22.9202 112.255 22.5664C111.939 22.2126 111.703 21.7941 111.564 21.34C111.425 20.8859 111.387 20.407 111.452 19.9367C111.389 19.4648 111.428 18.985 111.566 18.5295C111.705 18.074 111.939 17.6536 112.254 17.2967C112.569 16.9397 112.957 16.6547 113.392 16.4607C113.827 16.2668 114.298 16.1685 114.774 16.1726C116.779 16.1726 117.988 17.5422 117.988 19.8046V20.3008H112.901V20.3804C112.878 20.6448 112.911 20.911 112.998 21.1618C113.085 21.4125 113.223 21.6425 113.403 21.8368C113.584 22.0311 113.803 22.1856 114.047 22.2902C114.291 22.3948 114.554 22.4474 114.819 22.4444C115.159 22.4853 115.504 22.424 115.809 22.2685C116.114 22.113 116.366 21.8702 116.533 21.571L117.902 21.571ZM112.901 19.2492H116.54C116.557 19.0074 116.525 18.7645 116.443 18.5361C116.362 18.3078 116.233 18.099 116.066 17.9233C115.899 17.7475 115.697 17.6086 115.473 17.5155C115.249 17.4224 115.009 17.3772 114.766 17.3828C114.52 17.3797 114.276 17.4259 114.048 17.5186C113.821 17.6113 113.614 17.7486 113.44 17.9226C113.266 18.0965 113.129 18.3035 113.036 18.5314C112.943 18.7592 112.897 19.0033 112.901 19.2492Z" fill="white"/>
<path d="M119.963 13.4991H121.385V23.5163H119.963V13.4991Z" fill="white"/>
<path d="M123.361 19.9108C123.316 19.4373 123.37 18.9596 123.52 18.5083C123.67 18.057 123.913 17.6421 124.233 17.2901C124.553 16.9381 124.943 16.6569 125.378 16.4645C125.813 16.272 126.283 16.1726 126.759 16.1726C127.235 16.1726 127.705 16.272 128.14 16.4645C128.575 16.6569 128.965 16.9381 129.285 17.2901C129.605 17.6421 129.847 18.057 129.998 18.5083C130.148 18.9596 130.202 19.4373 130.157 19.9108C130.203 20.3848 130.149 20.8631 129.999 21.3152C129.85 21.7672 129.607 22.1829 129.287 22.5356C128.967 22.8882 128.577 23.17 128.141 23.3629C127.706 23.5558 127.235 23.6554 126.759 23.6554C126.283 23.6554 125.812 23.5558 125.376 23.3629C124.941 23.17 124.551 22.8882 124.231 22.5356C123.911 22.1829 123.668 21.7672 123.518 21.3152C123.369 20.8631 123.315 20.3848 123.361 19.9108ZM128.694 19.9108C128.694 18.3491 127.993 17.4358 126.761 17.4358C125.525 17.4358 124.83 18.3491 124.83 19.9108C124.83 21.485 125.525 22.3913 126.761 22.3913C127.993 22.3913 128.694 21.4788 128.694 19.9108H128.694Z" fill="white"/>
<path d="M142.066 21.571C141.872 22.2295 141.454 22.7991 140.883 23.1801C140.313 23.5611 139.626 23.7294 138.944 23.6554C138.469 23.6679 137.997 23.577 137.561 23.389C137.125 23.2009 136.736 22.9202 136.419 22.5664C136.102 22.2126 135.866 21.7941 135.728 21.34C135.589 20.8859 135.551 20.407 135.616 19.9367C135.552 19.4648 135.591 18.985 135.73 18.5295C135.868 18.074 136.103 17.6536 136.418 17.2967C136.733 16.9397 137.121 16.6547 137.555 16.4607C137.99 16.2668 138.462 16.1685 138.938 16.1726C140.942 16.1726 142.152 17.5422 142.152 19.8046V20.3008H137.064V20.3804C137.042 20.6448 137.075 20.911 137.162 21.1618C137.248 21.4125 137.386 21.6425 137.567 21.8368C137.748 22.0311 137.967 22.1856 138.211 22.2902C138.455 22.3948 138.718 22.4474 138.983 22.4444C139.323 22.4853 139.668 22.424 139.973 22.2685C140.278 22.113 140.53 21.8702 140.697 21.571L142.066 21.571ZM137.064 19.2492H140.703C140.721 19.0074 140.688 18.7645 140.607 18.5361C140.525 18.3078 140.397 18.099 140.23 17.9233C140.063 17.7475 139.861 17.6086 139.637 17.5155C139.413 17.4224 139.172 17.3772 138.93 17.3828C138.684 17.3797 138.44 17.4258 138.212 17.5185C137.984 17.6112 137.777 17.7486 137.603 17.9226C137.43 18.0965 137.292 18.3035 137.2 18.5313C137.107 18.7592 137.061 19.0032 137.064 19.2492H137.064Z" fill="white"/>
<path d="M144.061 16.3116H145.43V17.4561H145.536C145.716 17.045 146.02 16.7004 146.406 16.4703C146.791 16.2403 147.239 16.1361 147.686 16.1725C148.037 16.1461 148.389 16.199 148.716 16.3272C149.043 16.4553 149.338 16.6555 149.577 16.9128C149.817 17.1702 149.995 17.4781 150.099 17.8138C150.204 18.1495 150.231 18.5044 150.18 18.8522V23.5162H148.758V19.2092C148.758 18.0514 148.255 17.4756 147.203 17.4756C146.965 17.4645 146.728 17.5051 146.507 17.5944C146.286 17.6837 146.087 17.8197 145.923 17.9932C145.76 18.1666 145.636 18.3733 145.56 18.5991C145.484 18.8249 145.458 19.0645 145.483 19.3014V23.5162H144.061V16.3116Z" fill="white"/>
<path d="M162.38 21.571C162.186 22.2295 161.768 22.7991 161.197 23.1801C160.626 23.5611 159.94 23.7294 159.258 23.6554C158.783 23.6679 158.311 23.577 157.875 23.389C157.439 23.2009 157.05 22.9202 156.733 22.5664C156.416 22.2126 156.18 21.7941 156.042 21.34C155.903 20.8859 155.865 20.407 155.93 19.9367C155.866 19.4648 155.905 18.985 156.044 18.5295C156.182 18.074 156.417 17.6536 156.732 17.2967C157.047 16.9397 157.435 16.6547 157.869 16.4607C158.304 16.2668 158.776 16.1685 159.252 16.1726C161.256 16.1726 162.466 17.5422 162.466 19.8046V20.3008H157.378V20.3804C157.356 20.6448 157.389 20.911 157.476 21.1618C157.562 21.4125 157.7 21.6425 157.881 21.8368C158.062 22.0311 158.281 22.1856 158.525 22.2902C158.769 22.3948 159.032 22.4474 159.297 22.4444C159.637 22.4853 159.982 22.424 160.287 22.2685C160.592 22.113 160.844 21.8702 161.011 21.571L162.38 21.571ZM157.378 19.2492H161.017C161.035 19.0074 161.002 18.7645 160.921 18.5361C160.839 18.3078 160.711 18.099 160.544 17.9233C160.377 17.7475 160.175 17.6086 159.951 17.5155C159.727 17.4224 159.486 17.3772 159.244 17.3828C158.998 17.3797 158.754 17.4259 158.526 17.5186C158.298 17.6113 158.091 17.7487 157.917 17.9226C157.743 18.0965 157.606 18.3035 157.514 18.5314C157.421 18.7592 157.375 19.0033 157.378 19.2492H157.378Z" fill="white"/>
<path d="M164.441 13.4991H165.863V23.5163H164.441V13.4991Z" fill="white"/>
</svg>
