<svg width="216" height="64" viewBox="0 0 216 64" fill="none" xmlns="http://www.w3.org/2000/svg">
<path d="M208 0H8C3.58172 0 0 3.58172 0 8V56C0 60.4183 3.58172 64 8 64H208C212.418 64 216 60.4183 216 56V8C216 3.58172 212.418 0 208 0Z" fill="black"/>
<path d="M208 1.28C209.782 1.28 211.492 1.988 212.752 3.24824C214.012 4.50849 214.72 6.21775 214.72 8V56C214.72 57.7823 214.012 59.4915 212.752 60.7518C211.492 62.012 209.782 62.72 208 62.72H8C6.21775 62.72 4.50849 62.012 3.24824 60.7518C1.988 59.4915 1.28 57.7823 1.28 56V8C1.28 6.21775 1.988 4.50849 3.24824 3.24824C4.50849 1.988 6.21775 1.28 8 1.28H208ZM208 0H8C5.87827 0 3.84344 0.842855 2.34315 2.34315C0.842855 3.84344 0 5.87827 0 8V56C0 58.1217 0.842855 60.1566 2.34315 61.6569C3.84344 63.1571 5.87827 64 8 64H208C210.122 64 212.157 63.1571 213.657 61.6569C215.157 60.1566 216 58.1217 216 56V8C216 5.87827 215.157 3.84344 213.657 2.34315C212.157 0.842855 210.122 0 208 0Z" fill="#A6A6A6"/>
<path d="M109.024 34.8C107.676 34.8031 106.359 35.206 105.24 35.9576C104.121 36.7092 103.249 37.7757 102.737 39.0224C102.224 40.269 102.092 41.6398 102.358 42.9614C102.624 44.2829 103.276 45.4959 104.231 46.4469C105.187 47.3979 106.403 48.0442 107.726 48.3041C109.049 48.564 110.419 48.4258 111.663 47.907C112.907 47.3882 113.97 46.5121 114.716 45.3894C115.462 44.2668 115.859 42.948 115.856 41.6C115.869 40.7007 115.701 39.8079 115.362 38.9749C115.023 38.1419 114.519 37.3857 113.882 36.7512C113.244 36.1167 112.486 35.617 111.651 35.2818C110.817 34.9466 109.923 34.7827 109.024 34.8ZM109.024 45.728C108.197 45.7858 107.373 45.5936 106.657 45.1766C105.942 44.7595 105.368 44.1369 105.011 43.3895C104.654 42.6421 104.53 41.8046 104.655 40.9858C104.78 40.167 105.149 39.4049 105.713 38.7984C106.277 38.192 107.011 37.7692 107.819 37.5852C108.626 37.4012 109.47 37.4643 110.242 37.7665C111.013 38.0687 111.675 38.5958 112.143 39.2795C112.611 39.9632 112.862 40.7717 112.864 41.6C112.89 42.1248 112.81 42.6495 112.63 43.143C112.45 43.6366 112.172 44.0891 111.814 44.4739C111.457 44.8586 111.025 45.1678 110.546 45.3832C110.067 45.5985 109.549 45.7158 109.024 45.728ZM94.1118 34.8C92.7637 34.8031 91.4468 35.206 90.3277 35.9576C89.2086 36.7092 88.3375 37.7757 87.8245 39.0224C87.3116 40.269 87.1798 41.6398 87.4459 42.9614C87.712 44.2829 88.364 45.4959 89.3195 46.4469C90.2749 47.3979 91.491 48.0442 92.8137 48.3041C94.1365 48.564 95.5067 48.4258 96.7509 47.907C97.9952 47.3882 99.0576 46.5121 99.804 45.3894C100.55 44.2668 100.947 42.948 100.944 41.6C100.957 40.7007 100.789 39.8079 100.45 38.9749C100.111 38.1419 99.6072 37.3857 98.9698 36.7512C98.3323 36.1167 97.5737 35.617 96.7391 35.2818C95.9045 34.9466 95.011 34.7827 94.1118 34.8ZM94.1118 45.728C93.2855 45.7858 92.4609 45.5936 91.7453 45.1766C91.0297 44.7595 90.456 44.1369 90.099 43.3895C89.742 42.6421 89.618 41.8046 89.7432 40.9858C89.8685 40.167 90.2372 39.4049 90.8013 38.7984C91.3655 38.192 92.099 37.7692 92.9066 37.5852C93.7142 37.4012 94.5585 37.4643 95.3297 37.7665C96.1009 38.0687 96.7634 38.5958 97.231 39.2795C97.6986 39.9632 97.9498 40.7717 97.9518 41.6C97.9775 42.1248 97.898 42.6495 97.7177 43.143C97.5375 43.6366 97.2603 44.0891 96.9024 44.4739C96.5445 44.8586 96.1132 45.1678 95.6339 45.3832C95.1546 45.5985 94.6371 45.7158 94.1118 45.728ZM76.3838 36.896V39.776H83.2958C83.1874 41.1325 82.6235 42.4124 81.6958 43.408C81.0024 44.1144 80.1685 44.6674 79.2479 45.0312C78.3274 45.395 77.3407 45.5615 76.3518 45.52C74.3149 45.52 72.3615 44.7108 70.9212 43.2706C69.4809 41.8303 68.6718 39.8768 68.6718 37.84C68.6718 35.8031 69.4809 33.8497 70.9212 32.4094C72.3615 30.9691 74.3149 30.16 76.3518 30.16C78.3045 30.1309 80.19 30.8725 81.5998 32.224L83.6318 30.192C82.6781 29.2488 81.5459 28.5054 80.3013 28.0054C79.0567 27.5053 77.7249 27.2587 76.3838 27.28C74.9614 27.2246 73.5424 27.457 72.212 27.9631C70.8815 28.4693 69.6669 29.2388 68.641 30.2256C67.615 31.2124 66.7989 32.3961 66.2414 33.7059C65.6839 35.0157 65.3965 36.4245 65.3965 37.848C65.3965 39.2715 65.6839 40.6803 66.2414 41.9901C66.7989 43.2998 67.615 44.4836 68.641 45.4704C69.6669 46.4571 70.8815 47.2267 72.212 47.7328C73.5424 48.239 74.9614 48.4713 76.3838 48.416C77.7524 48.4706 79.1172 48.2352 80.3884 47.725C81.6596 47.2149 82.8086 46.4416 83.7598 45.456C85.44 43.6102 86.3352 41.1827 86.2558 38.688C86.2615 38.0875 86.2133 37.4878 86.1118 36.896H76.3838ZM148.88 39.136C148.463 37.9084 147.682 36.8364 146.642 36.0621C145.602 35.2878 144.351 34.8477 143.056 34.8C142.181 34.7983 141.314 34.9761 140.511 35.3224C139.707 35.6688 138.983 36.1763 138.383 36.8136C137.783 37.451 137.32 38.2045 137.023 39.0278C136.726 39.851 136.601 40.7265 136.656 41.6C136.642 43.0605 137.101 44.4863 137.965 45.6644C138.828 46.8425 140.05 47.7096 141.447 48.1362C142.844 48.5628 144.341 48.5261 145.715 48.0315C147.09 47.5369 148.267 46.611 149.072 45.392L146.752 43.792C146.406 44.3684 145.915 44.8444 145.329 45.1728C144.742 45.5012 144.08 45.6705 143.408 45.664C142.714 45.6926 142.028 45.5108 141.44 45.1424C140.852 44.7741 140.389 44.2364 140.112 43.6L149.216 39.84L148.88 39.136ZM139.6 41.408C139.567 40.911 139.634 40.4125 139.797 39.9418C139.96 39.471 140.215 39.0374 140.547 38.6664C140.879 38.2954 141.282 37.9944 141.732 37.7811C142.182 37.5677 142.67 37.4463 143.168 37.424C143.683 37.3925 144.197 37.5139 144.643 37.7729C145.09 38.0319 145.451 38.417 145.68 38.88L139.6 41.408ZM132.208 48H135.2V28H132.208V48ZM127.312 36.32H127.2C126.753 35.8109 126.201 35.4045 125.583 35.1283C124.964 34.8522 124.293 34.7129 123.616 34.72C121.867 34.8048 120.218 35.559 119.011 36.8265C117.803 38.094 117.13 39.7774 117.13 41.528C117.13 43.2785 117.803 44.962 119.011 46.2294C120.218 47.4969 121.867 48.2512 123.616 48.336C124.294 48.3496 124.967 48.2132 125.587 47.9366C126.206 47.6601 126.757 47.2501 127.2 46.736H127.312V47.712C127.312 50.32 125.92 51.712 123.68 51.712C122.931 51.6955 122.205 51.4571 121.592 51.0269C120.98 50.5968 120.509 49.9943 120.24 49.296L117.648 50.368C118.127 51.5716 118.96 52.6014 120.037 53.3213C121.114 54.0413 122.384 54.4174 123.68 54.4C127.184 54.4 130.08 52.336 130.08 47.312V35.2H127.312V36.32ZM123.872 45.728C122.823 45.6626 121.839 45.2001 121.12 44.4346C120.401 43.6692 120.001 42.6583 120.001 41.608C120.001 40.5576 120.401 39.5468 121.12 38.7813C121.839 38.0158 122.823 37.5533 123.872 37.488C124.384 37.5101 124.887 37.635 125.35 37.8554C125.813 38.0758 126.227 38.387 126.567 38.7707C126.908 39.1543 127.167 39.6025 127.331 40.0885C127.495 40.5746 127.559 41.0886 127.52 41.6C127.563 42.1131 127.503 42.6297 127.341 43.1186C127.179 43.6075 126.92 44.0586 126.579 44.4444C126.238 44.8303 125.822 45.143 125.357 45.3636C124.892 45.5842 124.386 45.7082 123.872 45.728ZM162.896 28H155.728V48H158.72V40.416H162.896C163.748 40.4772 164.605 40.3622 165.411 40.0779C166.217 39.7937 166.956 39.3464 167.582 38.764C168.208 38.1815 168.707 37.4764 169.048 36.6925C169.39 35.9087 169.566 35.0629 169.566 34.208C169.566 33.353 169.39 32.5073 169.048 31.7234C168.707 30.9396 168.208 30.2344 167.582 29.652C166.956 29.0695 166.217 28.6222 165.411 28.338C164.605 28.0538 163.748 27.9387 162.896 28ZM162.896 37.6H158.72V30.784H162.96C163.409 30.784 163.855 30.8725 164.27 31.0446C164.686 31.2167 165.063 31.4689 165.381 31.7868C165.699 32.1048 165.951 32.4822 166.123 32.8977C166.295 33.3131 166.384 33.7583 166.384 34.208C166.384 34.6576 166.295 35.1029 166.123 35.5183C165.951 35.9337 165.699 36.3112 165.381 36.6291C165.063 36.9471 164.686 37.1993 164.27 37.3713C163.855 37.5434 163.409 37.632 162.96 37.632L162.896 37.6ZM181.36 34.736C180.27 34.6688 179.185 34.9225 178.238 35.4656C177.291 36.0087 176.524 36.8175 176.032 37.792L178.672 38.896C178.939 38.415 179.339 38.0216 179.824 37.7632C180.31 37.5048 180.86 37.3926 181.408 37.44C181.788 37.3956 182.172 37.4273 182.54 37.5333C182.907 37.6392 183.25 37.8173 183.548 38.0571C183.846 38.2969 184.093 38.5936 184.275 38.9299C184.457 39.2662 184.57 39.6354 184.608 40.016V40.208C183.646 39.7022 182.575 39.4386 181.488 39.44C178.64 39.44 175.728 41.04 175.728 43.952C175.756 44.5709 175.908 45.1779 176.176 45.7369C176.443 46.2958 176.82 46.7953 177.284 47.2058C177.748 47.6162 178.29 47.9291 178.878 48.126C179.465 48.323 180.086 48.3998 180.704 48.352C181.455 48.3935 182.203 48.2346 182.872 47.8916C183.541 47.5486 184.107 47.0338 184.512 46.4H184.608V48H187.488V40.304C187.488 36.8 184.832 34.768 181.424 34.768L181.36 34.736ZM180.992 45.696C180.016 45.696 178.656 45.2 178.656 44C178.656 42.4 180.352 41.856 181.856 41.856C182.806 41.8325 183.746 42.0646 184.576 42.528C184.475 43.3969 184.063 44.1999 183.416 44.7883C182.769 45.3767 181.93 45.7105 181.056 45.728L180.992 45.696ZM197.984 35.2L194.56 43.872H194.464L190.912 35.2H187.712L193.04 47.328L190 54.064H193.12L201.312 35.2H197.984ZM171.104 48H174.08V28H171.104V48Z" fill="white"/>
<path d="M16.7042 12.0639C16.1769 12.6873 15.9079 13.4886 15.9522 14.3039V49.6959C15.8978 50.5125 16.168 51.3176 16.7042 51.9359L16.8162 52.0639L36.6402 32.2399V31.7599L16.8162 11.9519L16.7042 12.0639Z" fill="url(#paint0_linear_169_2370)"/>
<path d="M43.2001 38.848L36.6401 32.24V31.76L43.2001 25.152L43.3441 25.248L51.2001 29.696C53.4401 30.96 53.4401 33.04 51.2001 34.32L43.3761 38.768L43.2001 38.848Z" fill="url(#paint1_linear_169_2370)"/>
<path d="M43.3921 38.752L36.6401 32L16.7041 51.936C17.1562 52.3384 17.7349 52.57 18.3399 52.5904C18.9448 52.6109 19.5378 52.419 20.0161 52.048L43.3921 38.752Z" fill="url(#paint2_linear_169_2370)"/>
<path d="M43.3921 25.248L20.0161 11.968C19.5409 11.5918 18.9484 11.3953 18.3426 11.4128C17.7369 11.4304 17.1567 11.6609 16.7041 12.064L36.6401 32L43.3921 25.248Z" fill="url(#paint3_linear_169_2370)"/>
<path opacity="0.2" d="M43.2001 38.608L20.0161 51.808C19.5552 52.1559 18.9935 52.344 18.4161 52.344C17.8387 52.344 17.277 52.1559 16.8161 51.808L16.7041 51.92L16.8161 52.048C17.277 52.3959 17.8387 52.584 18.4161 52.584C18.9935 52.584 19.5552 52.3959 20.0161 52.048L43.3921 38.752L43.2001 38.608Z" fill="black"/>
<path opacity="0.12" d="M16.7039 51.7119C16.19 51.0773 15.9381 50.2702 15.9999 49.4559V49.6959C15.9455 50.5125 16.2157 51.3176 16.7519 51.9359L16.8639 51.8239L16.7039 51.7119Z" fill="black"/>
<path opacity="0.12" d="M51.2002 34.08L43.2002 38.608L43.3442 38.752L51.2002 34.304C51.6639 34.1079 52.0662 33.7904 52.3647 33.385C52.6631 32.9795 52.8468 32.501 52.8962 32C52.7962 32.4553 52.5906 32.8807 52.296 33.242C52.0014 33.6033 51.626 33.8904 51.2002 34.08Z" fill="black"/>
<path opacity="0.25" d="M20.0161 12.192L51.2001 29.92C51.626 30.1096 52.0013 30.3967 52.2959 30.758C52.5905 31.1192 52.7961 31.5447 52.8962 32C52.8467 31.4989 52.6631 31.0205 52.3646 30.615C52.0662 30.2096 51.6639 29.8921 51.2001 29.696L20.0161 11.968C17.7921 10.688 15.9521 11.744 15.9521 14.304V14.544C16.0001 11.984 17.7921 10.928 20.0161 12.192Z" fill="white"/>
<path d="M66.0479 20.8V11.2H68.9919C69.6404 11.1707 70.2882 11.2733 70.896 11.5015C71.5037 11.7298 72.0589 12.079 72.5279 12.528C72.9689 12.9893 73.3136 13.534 73.5416 14.1302C73.7696 14.7263 73.8765 15.362 73.8558 16C73.8765 16.6379 73.7696 17.2736 73.5416 17.8697C73.3136 18.4659 72.9689 19.0106 72.5279 19.472C72.0589 19.9209 71.5037 20.2701 70.896 20.4984C70.2882 20.7266 69.6404 20.8292 68.9919 20.8H66.0479ZM67.2799 19.616H68.9919C69.4699 19.6401 69.9481 19.5691 70.3985 19.4071C70.849 19.245 71.2627 18.9952 71.6158 18.672C71.9531 18.3173 72.2138 17.8971 72.3817 17.4374C72.5496 16.9778 72.6211 16.4885 72.5918 16C72.6329 15.5161 72.5681 15.0291 72.4019 14.5729C72.2358 14.1166 71.9722 13.702 71.6296 13.3579C71.287 13.0138 70.8736 12.7484 70.4181 12.5802C69.9626 12.412 69.4759 12.345 68.9919 12.384H67.2799V19.616Z" fill="white" stroke="white" stroke-width="0.2" stroke-miterlimit="10"/>
<path d="M75.584 20.8V11.2H76.8V20.8H75.584Z" fill="white" stroke="white" stroke-width="0.2" stroke-miterlimit="10"/>
<path d="M81.7282 21.0081C80.9929 20.9985 80.2782 20.764 79.6802 20.3361C79.0175 19.8832 78.5492 19.1979 78.3682 18.4161L79.5042 17.9521C79.6284 18.4746 79.9139 18.9448 80.3202 19.2961C80.7073 19.6434 81.2081 19.8369 81.7282 19.8401C82.2219 19.8517 82.7057 19.6998 83.1042 19.4081C83.2837 19.2793 83.4287 19.1083 83.5264 18.9102C83.624 18.712 83.6714 18.4929 83.6642 18.2721C83.6774 18.0344 83.6335 17.7971 83.5361 17.5799C83.4386 17.3627 83.2905 17.1721 83.1042 17.0241C82.5487 16.6576 81.9384 16.3822 81.2962 16.2081C80.5778 16.0191 79.9143 15.6627 79.3602 15.1681C79.1465 14.9609 78.9779 14.7119 78.8651 14.4366C78.7522 14.1612 78.6974 13.8656 78.7042 13.5681C78.7045 13.2261 78.7774 12.8881 78.9181 12.5765C79.0587 12.2648 79.264 11.9865 79.5202 11.7601C80.0929 11.2527 80.8351 10.9786 81.6002 10.9921C82.3127 10.953 83.0159 11.1685 83.5842 11.6001C84.0449 11.9287 84.3917 12.393 84.5762 12.9281L83.4562 13.3921C83.355 13.0575 83.1471 12.7653 82.8642 12.5601C82.5156 12.2818 82.0777 12.1397 81.6322 12.1601C81.1934 12.1529 80.765 12.2938 80.4162 12.5601C80.2608 12.6742 80.1347 12.8237 80.0485 12.9962C79.9622 13.1687 79.9183 13.3592 79.9202 13.5521C79.922 13.7273 79.965 13.8997 80.0456 14.0553C80.1261 14.2109 80.2421 14.3454 80.3842 14.4481C80.794 14.7511 81.2545 14.9787 81.7442 15.1201C82.147 15.2406 82.5424 15.3849 82.9282 15.5521C83.2684 15.7082 83.5903 15.9013 83.8882 16.1281C84.2083 16.3497 84.4626 16.6538 84.6242 17.0081C84.8041 17.3933 84.8917 17.8151 84.8802 18.2401C84.8874 18.6733 84.7885 19.1018 84.5922 19.4881C84.4162 19.8383 84.1513 20.1362 83.8242 20.3521C83.5116 20.5711 83.1658 20.7386 82.8002 20.8481C82.4523 20.9525 82.0913 21.0063 81.7282 21.0081Z" fill="white" stroke="white" stroke-width="0.2" stroke-miterlimit="10"/>
<path d="M88.0001 20.7999H86.7681V11.1999H89.9681C90.7515 11.1865 91.5092 11.4792 92.0801 12.0159C92.3628 12.2752 92.5886 12.5905 92.743 12.9416C92.8974 13.2928 92.9772 13.6723 92.9772 14.0559C92.9772 14.4395 92.8974 14.819 92.743 15.1702C92.5886 15.5214 92.3628 15.8366 92.0801 16.0959C91.5092 16.6326 90.7515 16.9254 89.9681 16.9119H88.0001V20.7999ZM88.0001 15.7279H90.0641C90.2968 15.7386 90.5291 15.6983 90.7447 15.6099C90.9602 15.5214 91.1539 15.387 91.3121 15.2159C91.6104 14.9034 91.7768 14.488 91.7768 14.0559C91.7768 13.6239 91.6104 13.2084 91.3121 12.8959C91.1539 12.7248 90.9602 12.5904 90.7447 12.502C90.5291 12.4135 90.2968 12.3732 90.0641 12.3839H88.0001V15.7279Z" fill="white" stroke="white" stroke-width="0.2" stroke-miterlimit="10"/>
<path d="M102.4 19.552C101.947 20.0267 101.4 20.4015 100.794 20.6522C100.188 20.903 99.5357 21.0242 98.8799 21.008C98.2237 21.0272 97.5708 20.9074 96.9642 20.6564C96.3575 20.4055 95.8108 20.0291 95.3599 19.552C94.4445 18.596 93.9336 17.3235 93.9336 16C93.9336 14.6764 94.4445 13.404 95.3599 12.448C95.8207 11.986 96.368 11.6194 96.9707 11.3693C97.5733 11.1192 98.2194 10.9905 98.8719 10.9905C99.5244 10.9905 100.17 11.1192 100.773 11.3693C101.376 11.6194 101.923 11.986 102.384 12.448C103.292 13.4077 103.798 14.6787 103.798 16C103.798 17.3212 103.292 18.5923 102.384 19.552H102.4ZM96.2719 18.752C96.6114 19.0969 97.0161 19.3708 97.4625 19.5578C97.9088 19.7448 98.3879 19.8411 98.8719 19.8411C99.3559 19.8411 99.835 19.7448 100.281 19.5578C100.728 19.3708 101.132 19.0969 101.472 18.752C102.162 18.0018 102.545 17.0195 102.545 16C102.545 14.9805 102.162 13.9982 101.472 13.248C101.132 12.9031 100.728 12.6291 100.281 12.4421C99.835 12.2552 99.3559 12.1589 98.8719 12.1589C98.3879 12.1589 97.9088 12.2552 97.4625 12.4421C97.0161 12.6291 96.6114 12.9031 96.2719 13.248C95.5815 13.9982 95.1983 14.9805 95.1983 16C95.1983 17.0195 95.5815 18.0018 96.2719 18.752Z" fill="white" stroke="white" stroke-width="0.2" stroke-miterlimit="10"/>
<path d="M105.6 20.8V11.2H107.104L111.776 18.672V16.816V11.2H113.008V20.8H111.712L106.912 12.976V14.816V20.8H105.6Z" fill="white" stroke="white" stroke-width="0.2" stroke-miterlimit="10"/>
<path d="M115.2 20.8V11.2H116.432V20.8H115.2Z" fill="white" stroke="white" stroke-width="0.2" stroke-miterlimit="10"/>
<path d="M118.56 20.8V11.2H122.032C122.752 11.1944 123.447 11.4567 123.984 11.936C124.247 12.1709 124.456 12.4598 124.597 12.7829C124.737 13.106 124.807 13.4557 124.8 13.808C124.811 14.24 124.688 14.6647 124.448 15.024C124.212 15.3676 123.885 15.6389 123.504 15.808C123.968 15.9617 124.375 16.2516 124.672 16.64C124.973 17.0286 125.131 17.5088 125.12 18C125.128 18.3689 125.055 18.735 124.906 19.0724C124.756 19.4098 124.535 19.7101 124.256 19.952C123.703 20.4717 122.967 20.7533 122.208 20.736L118.56 20.8ZM119.792 15.312H122.032C122.241 15.3219 122.45 15.2854 122.644 15.2052C122.838 15.125 123.011 15.003 123.152 14.848C123.293 14.7185 123.406 14.562 123.484 14.3878C123.563 14.2136 123.606 14.0253 123.611 13.8342C123.615 13.6431 123.581 13.453 123.511 13.2754C123.44 13.0977 123.334 12.936 123.2 12.8C123.066 12.6508 122.9 12.5333 122.714 12.4558C122.529 12.3783 122.329 12.3429 122.128 12.352H119.792V15.312ZM119.792 19.616H122.272C122.489 19.6233 122.704 19.5826 122.904 19.4969C123.103 19.4111 123.28 19.2825 123.424 19.12C123.7 18.825 123.855 18.4363 123.856 18.032C123.846 17.6312 123.686 17.2486 123.408 16.96C123.254 16.7981 123.067 16.6703 122.861 16.5848C122.654 16.4994 122.432 16.4583 122.208 16.464H119.792V19.616Z" fill="white" stroke="white" stroke-width="0.2" stroke-miterlimit="10"/>
<path d="M126.784 20.8V11.2H128V19.616H132.16V20.8H126.784Z" fill="white" stroke="white" stroke-width="0.2" stroke-miterlimit="10"/>
<path d="M139.328 12.384H134.96V15.4239H138.912V16.576H134.96V19.616H139.328V20.8H133.728V11.2H139.328V12.384Z" fill="white" stroke="white" stroke-width="0.2" stroke-miterlimit="10"/>
<path d="M150.096 12.384H145.712V15.4239H149.664V16.576H145.712V19.616H150.096V20.8H144.48V11.2H150.096V12.384Z" fill="white" stroke="white" stroke-width="0.2" stroke-miterlimit="10"/>
<path d="M152 20.8V11.2H153.6L158.272 18.672V16.816V11.2H159.504V20.8H158.208L153.408 12.976V14.816V20.8H152Z" fill="white" stroke="white" stroke-width="0.2" stroke-miterlimit="10"/>
<defs>
<linearGradient id="paint0_linear_169_2370" x1="34.8802" y1="13.9359" x2="8.03219" y2="40.7839" gradientUnits="userSpaceOnUse">
<stop stop-color="#00A0FF"/>
<stop offset="0.01" stop-color="#00A1FF"/>
<stop offset="0.26" stop-color="#00BEFF"/>
<stop offset="0.51" stop-color="#00D2FF"/>
<stop offset="0.76" stop-color="#00DFFF"/>
<stop offset="1" stop-color="#00E3FF"/>
</linearGradient>
<linearGradient id="paint1_linear_169_2370" x1="54.1281" y1="32" x2="15.4241" y2="32" gradientUnits="userSpaceOnUse">
<stop stop-color="#FFE000"/>
<stop offset="0.41" stop-color="#FFBD00"/>
<stop offset="0.78" stop-color="#FFA500"/>
<stop offset="1" stop-color="#FF9C00"/>
</linearGradient>
<linearGradient id="paint2_linear_169_2370" x1="39.7281" y1="35.68" x2="3.3121" y2="72.08" gradientUnits="userSpaceOnUse">
<stop stop-color="#FF3A44"/>
<stop offset="1" stop-color="#C31162"/>
</linearGradient>
<linearGradient id="paint3_linear_169_2370" x1="11.6801" y1="0.287976" x2="27.9361" y2="16.544" gradientUnits="userSpaceOnUse">
<stop stop-color="#32A071"/>
<stop offset="0.07" stop-color="#2DA771"/>
<stop offset="0.48" stop-color="#15CF74"/>
<stop offset="0.8" stop-color="#06E775"/>
<stop offset="1" stop-color="#00F076"/>
</linearGradient>
</defs>
</svg>
