<?xml version="1.0" encoding="UTF-8"?>
<svg version="1.1" xmlns="http://www.w3.org/2000/svg" width="854" height="854">
<path d="M0 0 C3.57281628 0.01611356 7.14450203 0.00000536 10.71728516 -0.01904297 C31.9737953 -0.03865096 53.16475749 1.71036243 74.07275391 5.64111328 C75.20898193 5.8509082 76.34520996 6.06070313 77.51586914 6.27685547 C108.49330775 12.17731997 138.289348 21.52683718 167.07275391 34.39111328 C168.07483887 34.83793457 169.07692383 35.28475586 170.109375 35.74511719 C192.96556911 46.05495176 214.80288796 58.61138143 235.07275391 73.39111328 C236.08466797 74.12201172 237.09658203 74.85291016 238.13916016 75.60595703 C250.01028929 84.34728115 261.45856268 93.65997209 272.22509766 103.73095703 C274.11363566 105.49514685 276.02253885 107.23780081 277.95166016 108.95751953 C324.39614117 150.45451921 357.88789871 206.32150591 379.07275391 264.39111328 C379.57186279 265.75623047 379.57186279 265.75623047 380.08105469 267.14892578 C387.14182515 286.71660781 392.05968166 306.94741567 395.82275391 327.39111328 C396.00918457 328.38312744 396.19561523 329.3751416 396.38769531 330.3972168 C400.08351016 351.56942964 401.57834528 372.8463783 401.46386719 394.31835938 C401.44775362 397.89117565 401.46386183 401.46286141 401.48291016 405.03564453 C401.50251814 426.29215467 399.75350475 447.48311686 395.82275391 468.39111328 C395.61295898 469.52734131 395.40316406 470.66356934 395.18701172 471.83422852 C389.28654722 502.81166712 379.93703 532.60770738 367.07275391 561.39111328 C366.62593262 562.39319824 366.17911133 563.3952832 365.71875 564.42773438 C355.40891543 587.28392849 342.85248576 609.12124734 328.07275391 629.39111328 C327.34185547 630.40302734 326.61095703 631.41494141 325.85791016 632.45751953 C317.11658604 644.32864867 307.8038951 655.77692205 297.73291016 666.54345703 C295.96872033 668.43199503 294.22606638 670.34089822 292.50634766 672.27001953 C251.00934798 718.71450054 195.14236127 752.20625809 137.07275391 773.39111328 C136.16267578 773.72385254 135.25259766 774.0565918 134.31494141 774.39941406 C114.74725938 781.46018452 94.51645152 786.37804103 74.07275391 790.14111328 C73.08073975 790.32754395 72.08872559 790.51397461 71.06665039 790.70605469 C49.89443754 794.40186953 28.61748889 795.89670466 7.14550781 795.78222656 C3.57269153 795.766113 0.00100578 795.7822212 -3.57177734 795.80126953 C-24.82828748 795.82087752 -46.01924968 794.07186413 -66.92724609 790.14111328 C-68.06347412 789.93131836 -69.19970215 789.72152344 -70.37036133 789.50537109 C-101.34779994 783.6049066 -131.14384019 774.25538938 -159.92724609 761.39111328 C-160.92933105 760.94429199 -161.93141602 760.4974707 -162.96386719 760.03710938 C-185.8200613 749.7272748 -207.65738015 737.17084513 -227.92724609 722.39111328 C-228.93916016 721.66021484 -229.95107422 720.92931641 -230.99365234 720.17626953 C-242.86478148 711.43494541 -254.31305486 702.12225447 -265.07958984 692.05126953 C-266.96812785 690.28707971 -268.87703104 688.54442576 -270.80615234 686.82470703 C-317.25063335 645.32770735 -350.7423909 589.46072065 -371.92724609 531.39111328 C-372.25998535 530.48103516 -372.59272461 529.57095703 -372.93554688 528.63330078 C-379.99631734 509.06561875 -384.91417384 488.8348109 -388.67724609 468.39111328 C-388.86367676 467.39909912 -389.05010742 466.40708496 -389.2421875 465.38500977 C-392.93800235 444.21279692 -394.43283747 422.93584826 -394.31835938 401.46386719 C-394.30224581 397.89105091 -394.31835401 394.31936516 -394.33740234 390.74658203 C-394.35701033 369.49007189 -392.60799694 348.2991097 -388.67724609 327.39111328 C-388.46745117 326.25488525 -388.25765625 325.11865723 -388.04150391 323.94799805 C-382.14103941 292.97055944 -372.79152219 263.17451918 -359.92724609 234.39111328 C-359.4804248 233.38902832 -359.03360352 232.38694336 -358.57324219 231.35449219 C-348.26340761 208.49829808 -335.70697794 186.66097923 -320.92724609 166.39111328 C-320.19634766 165.37919922 -319.46544922 164.36728516 -318.71240234 163.32470703 C-309.97107823 151.4535779 -300.65838728 140.00530451 -290.58740234 129.23876953 C-288.82321252 127.35023153 -287.08055857 125.44132834 -285.36083984 123.51220703 C-243.86384017 77.06772602 -187.99685346 43.57596847 -129.92724609 22.39111328 C-129.01716797 22.05837402 -128.10708984 21.72563477 -127.16943359 21.3828125 C-107.60175156 14.32204204 -87.37094371 9.40418553 -66.92724609 5.64111328 C-65.93523193 5.45468262 -64.94321777 5.26825195 -63.92114258 5.07617188 C-42.74892973 1.38035703 -21.47198107 -0.11447809 0 0 Z " fill="#20201E" transform="translate(422.92724609375,28.60888671875)"/>
<path d="M0 0 C3.57281628 0.01611356 7.14450203 0.00000536 10.71728516 -0.01904297 C31.9737953 -0.03865096 53.16475749 1.71036243 74.07275391 5.64111328 C75.20898193 5.8509082 76.34520996 6.06070313 77.51586914 6.27685547 C108.49330775 12.17731997 138.289348 21.52683718 167.07275391 34.39111328 C168.07483887 34.83793457 169.07692383 35.28475586 170.109375 35.74511719 C192.96556911 46.05495176 214.80288796 58.61138143 235.07275391 73.39111328 C236.08466797 74.12201172 237.09658203 74.85291016 238.13916016 75.60595703 C250.01028929 84.34728115 261.45856268 93.65997209 272.22509766 103.73095703 C274.11363566 105.49514685 276.02253885 107.23780081 277.95166016 108.95751953 C324.39614117 150.45451921 357.88789871 206.32150591 379.07275391 264.39111328 C379.57186279 265.75623047 379.57186279 265.75623047 380.08105469 267.14892578 C387.14182515 286.71660781 392.05968166 306.94741567 395.82275391 327.39111328 C396.00918457 328.38312744 396.19561523 329.3751416 396.38769531 330.3972168 C400.08351016 351.56942964 401.57834528 372.8463783 401.46386719 394.31835938 C401.44775362 397.89117565 401.46386183 401.46286141 401.48291016 405.03564453 C401.50251814 426.29215467 399.75350475 447.48311686 395.82275391 468.39111328 C395.61295898 469.52734131 395.40316406 470.66356934 395.18701172 471.83422852 C389.28654722 502.81166712 379.93703 532.60770738 367.07275391 561.39111328 C366.62593262 562.39319824 366.17911133 563.3952832 365.71875 564.42773438 C355.40891543 587.28392849 342.85248576 609.12124734 328.07275391 629.39111328 C327.34185547 630.40302734 326.61095703 631.41494141 325.85791016 632.45751953 C317.11658604 644.32864867 307.8038951 655.77692205 297.73291016 666.54345703 C295.96872033 668.43199503 294.22606638 670.34089822 292.50634766 672.27001953 C251.00934798 718.71450054 195.14236127 752.20625809 137.07275391 773.39111328 C136.16267578 773.72385254 135.25259766 774.0565918 134.31494141 774.39941406 C114.74725938 781.46018452 94.51645152 786.37804103 74.07275391 790.14111328 C73.08073975 790.32754395 72.08872559 790.51397461 71.06665039 790.70605469 C49.89443754 794.40186953 28.61748889 795.89670466 7.14550781 795.78222656 C3.57269153 795.766113 0.00100578 795.7822212 -3.57177734 795.80126953 C-24.82828748 795.82087752 -46.01924968 794.07186413 -66.92724609 790.14111328 C-68.06347412 789.93131836 -69.19970215 789.72152344 -70.37036133 789.50537109 C-101.34779994 783.6049066 -131.14384019 774.25538938 -159.92724609 761.39111328 C-160.92933105 760.94429199 -161.93141602 760.4974707 -162.96386719 760.03710938 C-185.8200613 749.7272748 -207.65738015 737.17084513 -227.92724609 722.39111328 C-228.93916016 721.66021484 -229.95107422 720.92931641 -230.99365234 720.17626953 C-242.86478148 711.43494541 -254.31305486 702.12225447 -265.07958984 692.05126953 C-266.96812785 690.28707971 -268.87703104 688.54442576 -270.80615234 686.82470703 C-317.25063335 645.32770735 -350.7423909 589.46072065 -371.92724609 531.39111328 C-372.25998535 530.48103516 -372.59272461 529.57095703 -372.93554688 528.63330078 C-379.99631734 509.06561875 -384.91417384 488.8348109 -388.67724609 468.39111328 C-388.86367676 467.39909912 -389.05010742 466.40708496 -389.2421875 465.38500977 C-392.93800235 444.21279692 -394.43283747 422.93584826 -394.31835938 401.46386719 C-394.30224581 397.89105091 -394.31835401 394.31936516 -394.33740234 390.74658203 C-394.35701033 369.49007189 -392.60799694 348.2991097 -388.67724609 327.39111328 C-388.46745117 326.25488525 -388.25765625 325.11865723 -388.04150391 323.94799805 C-382.14103941 292.97055944 -372.79152219 263.17451918 -359.92724609 234.39111328 C-359.4804248 233.38902832 -359.03360352 232.38694336 -358.57324219 231.35449219 C-348.26340761 208.49829808 -335.70697794 186.66097923 -320.92724609 166.39111328 C-320.19634766 165.37919922 -319.46544922 164.36728516 -318.71240234 163.32470703 C-309.97107823 151.4535779 -300.65838728 140.00530451 -290.58740234 129.23876953 C-288.82321252 127.35023153 -287.08055857 125.44132834 -285.36083984 123.51220703 C-243.86384017 77.06772602 -187.99685346 43.57596847 -129.92724609 22.39111328 C-129.01716797 22.05837402 -128.10708984 21.72563477 -127.16943359 21.3828125 C-107.60175156 14.32204204 -87.37094371 9.40418553 -66.92724609 5.64111328 C-65.93523193 5.45468262 -64.94321777 5.26825195 -63.92114258 5.07617188 C-42.74892973 1.38035703 -21.47198107 -0.11447809 0 0 Z M-228.92724609 117.39111328 C-229.87083984 118.15037109 -230.81443359 118.90962891 -231.78662109 119.69189453 C-240.44102429 126.7527069 -248.33305848 134.5804844 -256.23974609 142.45361328 C-257.07918259 143.28528519 -257.07918259 143.28528519 -257.93557739 144.13375854 C-265.07258545 151.21872605 -271.69041214 158.48476355 -277.92724609 166.39111328 C-278.93965201 167.62293271 -279.9548796 168.85244379 -280.97412109 170.07861328 C-333.69636795 234.35054193 -361.12532737 315.90721081 -361.17724609 398.57861328 C-361.17825317 399.69194031 -361.17926025 400.80526733 -361.18029785 401.95233154 C-361.17008883 418.64618598 -360.56742549 434.88022397 -357.92724609 451.39111328 C-357.62202459 453.45874286 -357.3173457 455.5264526 -357.01318359 457.59423828 C-356.10662335 463.55089719 -355.06510146 469.47447398 -353.92724609 475.39111328 C-353.76562988 476.23174316 -353.60401367 477.07237305 -353.4375 477.93847656 C-341.6231716 537.08065186 -311.79583452 594.37432875 -271.92724609 639.39111328 C-271.15123047 640.27798828 -270.37521484 641.16486328 -269.57568359 642.07861328 C-263.7185248 648.62375581 -257.5646129 654.87981796 -251.37979126 661.11380005 C-249.96997987 662.53551858 -248.5641493 663.96118116 -247.15844727 665.38696289 C-241.05953133 671.49351133 -234.6853933 677.02949091 -227.92724609 682.39111328 C-226.70762991 683.39238425 -225.48987253 684.39592854 -224.27490234 685.40283203 C-173.0912476 727.31525347 -110.16899727 753.78315697 -44.80224609 763.07861328 C-43.98103271 763.19809326 -43.15981934 763.31757324 -42.3137207 763.44067383 C-26.7252562 765.52689047 -10.94037489 765.5994034 4.76025391 765.57861328 C5.68328308 765.5776767 6.60631226 765.57674011 7.55731201 765.57577515 C21.48763597 765.54523213 35.2514265 765.28278391 49.07275391 763.39111328 C50.90773438 763.14119629 50.90773438 763.14119629 52.77978516 762.88623047 C124.27144789 752.96830878 191.99275319 723.75786532 246.07275391 675.39111328 C246.80469971 674.74529297 247.53664551 674.09947266 248.29077148 673.43408203 C254.43690328 667.97247925 260.3478226 662.30231158 266.15942383 656.48974609 C267.63231363 655.01904918 269.11305656 653.55657794 270.59423828 652.09423828 C276.86314548 645.86229829 282.58531812 639.32648058 288.07275391 632.39111328 C289.10927962 631.12470981 290.14803185 629.86012226 291.18994141 628.59814453 C298.32591737 619.85326152 304.89944276 610.83941831 311.07275391 601.39111328 C311.82443848 600.24376709 311.82443848 600.24376709 312.59130859 599.07324219 C332.97107063 567.70364586 347.43034394 534.18218384 358.07275391 498.39111328 C358.47083252 497.0537915 358.47083252 497.0537915 358.87695312 495.68945312 C362.44729024 483.47412688 364.68865135 471.10372354 366.67138672 458.54150391 C367.07275391 456.39111328 367.07275391 456.39111328 368.07275391 453.39111328 C370.98634985 435.1084359 371.37628646 416.61112339 371.38525391 398.14111328 C371.39022385 396.6585907 371.39022385 396.6585907 371.39529419 395.14611816 C371.41982916 382.76456465 370.83990144 370.63626527 369.31228638 358.34783936 C368.99490124 355.75513962 368.73215566 353.15760606 368.46728516 350.55908203 C358.76383765 264.2939955 311.67086315 176.38608317 244.07275391 121.26611328 C242.40652444 119.97388269 240.73986608 118.68220489 239.07275391 117.39111328 C237.19486271 115.79033211 235.32003674 114.18595043 233.44775391 112.57861328 C201.30356058 85.81247032 163.18521288 66.58476688 124.07275391 52.39111328 C122.93604248 51.97756592 122.93604248 51.97756592 121.77636719 51.55566406 C101.45264292 44.2517486 80.30650452 40.04671052 59.07275391 36.39111328 C57.50630127 36.11557617 57.50630127 36.11557617 55.90820312 35.83447266 C39.04982623 33.01679155 22.05458838 33.08329654 5.01025391 33.01611328 C3.87474091 33.00807678 2.73922791 33.00004028 1.56930542 32.99176025 C-82.02618398 32.54363224 -165.17184497 63.46626054 -228.92724609 117.39111328 Z " fill="#20201E" transform="translate(422.92724609375,28.60888671875)"/>
<path d="M0 0 C1.10882538 -0.00705963 2.21765076 -0.01411926 3.3600769 -0.02139282 C49.24744187 -0.24734406 49.24744187 -0.24734406 68.96484375 3.203125 C70.20089355 3.41243652 71.43694336 3.62174805 72.71044922 3.83740234 C89.07111057 6.63857987 105.13787234 10.16373596 120.96484375 15.203125 C121.88716797 15.48881348 122.80949219 15.77450195 123.75976562 16.06884766 C189.82575479 36.60077277 254.22056998 77.00990795 296.96484375 132.203125 C298.56562492 134.08101619 300.1700066 135.95584217 301.77734375 137.828125 C346.20065971 191.17730043 373.12364894 260.45225532 379.96484375 329.203125 C380.05910645 330.11271973 380.15336914 331.02231445 380.25048828 331.95947266 C381.23736213 342.81155409 381.20652667 353.69019739 381.21484375 364.578125 C381.21618317 365.61381622 381.21752258 366.64950745 381.21890259 367.71658325 C381.21245264 390.79382191 379.95004883 413.59897592 374.96484375 436.203125 C374.64554942 437.86012318 374.32937881 439.51772505 374.015625 441.17578125 C360.18739071 511.96572803 322.76281901 576.59886312 272.06347656 627.28979492 C270.59277965 628.76268472 269.13030841 630.24342765 267.66796875 631.72460938 C261.43587284 637.99360706 254.89800149 643.71283579 247.96484375 649.203125 C246.73323033 650.21578152 245.50373026 651.23101964 244.27734375 652.25 C207.13758854 682.71573183 163.7134208 704.1206307 117.96484375 718.203125 C116.55090332 718.64180908 116.55090332 718.64180908 115.10839844 719.08935547 C83.69392145 728.68100128 50.62955178 732.40998478 17.87768555 732.33349609 C15.16644651 732.32815279 12.45537457 732.33346726 9.74414062 732.33984375 C-5.82515344 732.34762044 -21.26780342 731.97662472 -36.66015625 729.453125 C-38.30781982 729.18870605 -38.30781982 729.18870605 -39.98876953 728.91894531 C-94.65140512 719.93781551 -147.69339352 700.54129832 -193.03515625 668.203125 C-193.78249023 667.67074219 -194.52982422 667.13835938 -195.29980469 666.58984375 C-205.58996652 659.21654542 -215.5575933 651.59681772 -225.03515625 643.203125 C-226.36546875 642.03910156 -226.36546875 642.03910156 -227.72265625 640.8515625 C-234.26779877 634.99440371 -240.52386093 628.84049181 -246.75784302 622.65567017 C-248.17956155 621.24585877 -249.60522413 619.84002821 -251.03100586 618.43432617 C-257.1375543 612.33541023 -262.67353388 605.9612722 -268.03515625 599.203125 C-269.03642722 597.98350881 -270.03997151 596.76575143 -271.046875 595.55078125 C-310.55996405 547.29720299 -336.26080693 488.54284444 -346.72265625 427.203125 C-347.02635132 425.44391724 -347.02635132 425.44391724 -347.33618164 423.64916992 C-350.29634411 405.60069288 -351.36843295 387.68885255 -351.29589844 369.41015625 C-351.28516433 366.20553686 -351.29587707 363.00147776 -351.30859375 359.796875 C-351.36641297 281.97779695 -323.7972757 202.91948981 -275.03515625 142.203125 C-274.32101562 141.28917969 -273.606875 140.37523437 -272.87109375 139.43359375 C-270.95727706 136.9960371 -269.00297527 134.59724137 -267.03515625 132.203125 C-266.29652344 131.27886719 -265.55789063 130.35460937 -264.796875 129.40234375 C-257.71760884 120.72778841 -249.86491596 112.81654456 -241.97265625 104.890625 C-241.41829895 104.33109131 -240.86394165 103.77155762 -240.29278564 103.19506836 C-233.20791455 96.05815838 -225.94296907 89.4380853 -218.03515625 83.203125 C-216.81519777 82.20227112 -215.59741575 81.19875233 -214.3828125 80.19140625 C-181.75550968 53.4741022 -144.00950056 32.66015695 -104.03515625 19.203125 C-103.00358398 18.85556152 -101.97201172 18.50799805 -100.90917969 18.14990234 C-68.48664729 7.39030011 -34.26327697 0.1458921 0 0 Z M-55.84765625 23.328125 C-56.54996368 23.47552124 -57.25227112 23.62291748 -57.9758606 23.77478027 C-87.53249349 30.02152524 -116.47556109 40.0100178 -143.17822266 54.22167969 C-145.14458359 55.26096065 -147.12525005 56.26852145 -149.109375 57.2734375 C-172.24228402 69.09460067 -193.57452404 84.01780742 -213.03515625 101.203125 C-213.87949219 101.94820313 -214.72382813 102.69328125 -215.59375 103.4609375 C-218.09102285 105.6905027 -220.56475306 107.94383572 -223.03515625 110.203125 C-224.1222597 111.18504657 -225.20950757 112.16680827 -226.296875 113.1484375 C-231.5571197 117.92056398 -236.69557466 122.64998677 -241.25390625 128.11328125 C-243.4671327 130.70993948 -245.817594 133.16006699 -248.16015625 135.640625 C-255.03096009 143.04718724 -261.04087502 151.08313455 -267.03515625 159.203125 C-267.53660156 159.8744043 -268.03804688 160.54568359 -268.5546875 161.23730469 C-281.2738734 178.32766199 -292.00516135 196.91770246 -301.03515625 216.203125 C-301.38352539 216.93321777 -301.73189453 217.66331055 -302.09082031 218.41552734 C-314.02130474 243.50107896 -322.60929385 269.70967448 -328.22265625 296.890625 C-328.46072998 298.02201904 -328.69880371 299.15341309 -328.9440918 300.3190918 C-332.99544159 320.79736566 -334.54105141 341.329361 -334.42626953 362.17993164 C-334.41017484 365.63663245 -334.42624865 369.09216193 -334.4453125 372.54882812 C-334.46601921 393.47443728 -332.80691255 414.36196511 -328.28515625 434.828125 C-328.02911621 436.01994385 -327.77307617 437.2117627 -327.50927734 438.43969727 C-319.4547534 475.04432852 -306.48034881 511.03205994 -287.03515625 543.203125 C-286.58350098 543.95674316 -286.1318457 544.71036133 -285.66650391 545.48681641 C-272.83530005 566.7548557 -257.74090121 585.87794558 -241.03515625 604.203125 C-240.1946875 605.14800781 -239.35421875 606.09289062 -238.48828125 607.06640625 C-231.757111 614.59744134 -224.60289455 621.51645395 -217.03515625 628.203125 C-216.51195801 628.6657373 -215.98875977 629.12834961 -215.44970703 629.60498047 C-191.81964533 650.34847807 -165.24442361 667.71460566 -136.90429688 681.30322266 C-135.11284137 682.16572331 -133.33153376 683.04920657 -131.55078125 683.93359375 C-50.93046192 723.07923769 44.95612035 725.66582465 129.17553711 697.11132812 C140.71015938 693.07386779 151.91182245 688.40946551 162.96484375 683.203125 C163.70331543 682.85540039 164.44178711 682.50767578 165.20263672 682.14941406 C169.84634507 679.93812437 174.41980163 677.61005154 178.96484375 675.203125 C180.02082764 674.6472168 180.02082764 674.6472168 181.09814453 674.08007812 C206.87989765 660.41319069 230.52844995 643.04534966 251.8203125 623.125 C254.61417006 620.51410905 257.46925701 617.97958981 260.33984375 615.453125 C263.8608038 612.29386871 267.0252032 609.02577784 270.0703125 605.41015625 C271.9285575 603.24539661 273.85850087 601.16111744 275.81030273 599.08081055 C282.31479646 592.12180501 288.23569523 584.80889897 293.96484375 577.203125 C294.47805176 576.52507813 294.99125977 575.84703125 295.52001953 575.1484375 C328.04207862 531.93080619 349.51590324 481.34856291 359.27734375 428.265625 C359.40072113 427.60127441 359.52409851 426.93692383 359.6512146 426.25244141 C363.31191946 406.31633614 364.37247894 386.71266814 364.33984375 366.453125 C364.33952652 364.63396072 364.33952652 364.63396072 364.33920288 362.77804565 C364.30640492 343.9114448 363.45671183 325.77040721 359.96484375 307.203125 C359.68398926 305.62942139 359.68398926 305.62942139 359.39746094 304.02392578 C347.09589757 235.94040281 314.01007235 169.51934378 263.96484375 121.203125 C261.36844692 118.6236153 258.79312265 116.02697556 256.23828125 113.40625 C249.82171868 106.84508573 243.17514962 100.89697765 235.96484375 95.203125 C234.83282788 94.27172378 233.70271429 93.33800714 232.57421875 92.40234375 C223.14530526 84.6342844 213.26877826 77.75888841 202.96484375 71.203125 C202.34174316 70.80528809 201.71864258 70.40745117 201.07666016 69.99755859 C146.38305554 35.38078333 82.57723384 16.4550771 17.85766602 16.81201172 C14.39885164 16.82814128 10.94120224 16.81200925 7.48242188 16.79296875 C-13.89310419 16.77125266 -34.93578789 18.88606572 -55.84765625 23.328125 Z " fill="#FC6400" transform="translate(413.03515625,61.796875)"/>
<path d="M0 0 C0.33 0 0.66 0 1 0 C1.2511273 7.48318008 0.53726519 14.56018549 -0.6875 21.9375 C-0.95868652 23.578396 -0.95868652 23.578396 -1.23535156 25.25244141 C-7.06164193 59.25236928 -20.99845331 89.13009055 -45 114 C-45.77730469 114.84046875 -46.55460938 115.6809375 -47.35546875 116.546875 C-65.7610499 135.90818985 -91.73506404 149.79267799 -117 158 C-117.99 158 -118.98 158 -120 158 C-120 158.66 -120 159.32 -120 160 C-110.3897671 159.02441575 -101.28057496 157.24403816 -91.96777344 154.67700195 C-81.14826189 151.77481434 -81.14826189 151.77481434 -75.62109375 153.92578125 C-62.97806084 161.95489875 -51.78882275 171.66039957 -41 182 C-40.20335937 182.75539063 -39.40671875 183.51078125 -38.5859375 184.2890625 C-34.51474964 188.23826721 -31.02055818 192.1859854 -28 197 C-28 197.99 -28 198.98 -28 200 C-62.3128197 205.6958362 -99.03032276 193.69553993 -127 174 C-130.81929279 171.15323417 -134.45185318 168.17709878 -138 165 C-139.09054687 164.03320312 -139.09054687 164.03320312 -140.203125 163.046875 C-149.73272159 154.09923851 -156.69595395 142.50658545 -157.3125 129.3125 C-157.22511474 121.98306145 -154.59092883 114.87734132 -149.75170898 109.29833984 C-145.93573551 106.46999881 -140.96509482 106.4554872 -136.375 105.9375 C-134.1071038 105.62545371 -131.84016492 105.30637365 -129.57421875 104.98046875 C-127.89658447 104.74142822 -127.89658447 104.74142822 -126.18505859 104.49755859 C-100.56075657 100.49462072 -75.28391376 89.0620663 -55 73 C-54.12472656 72.32710938 -53.24945312 71.65421875 -52.34765625 70.9609375 C-29.45456802 52.89609026 -14.5726877 29.95943431 -2 4 C-1.33588069 2.66539603 -0.67070807 1.33130496 0 0 Z " fill="#FE6500" transform="translate(679,215)"/>
<path d="M0 0 C2.901978 3.51103511 4.78407441 7.42491023 6.75 11.5 C15.24224735 28.72201285 25.30309289 43.82803134 38.66162109 57.61474609 C39.81571576 58.80926144 40.95076858 60.02212082 42.08203125 61.23828125 C66.86046184 87.26867465 106.5781575 104.34315464 142.17431641 106.53588867 C145.81260008 106.88799231 148.13807812 107.18547019 150.8515625 109.74975586 C156.84749476 117.56704284 159.1866919 125.14236617 158 135 C153.00284272 156.02970355 135.91956684 169.05523693 118.69921875 180.12109375 C103.30955136 189.3982963 86.44662603 195.03678442 69 199 C67.99453125 199.24621094 66.9890625 199.49242187 65.953125 199.74609375 C54.54564969 202.13638843 40.40756952 202.55984073 29 200 C29.37535594 194.93269482 32.11223427 192.22645609 35.5 188.75 C36.0460791 188.17717285 36.5921582 187.6043457 37.15478516 187.01416016 C38.2564529 185.86275426 39.36268047 184.71569229 40.47363281 183.57324219 C41.76496387 182.24225413 43.03705293 180.89263839 44.3046875 179.5390625 C52.1466852 171.34195547 69.46853052 153.27783018 81.21118164 152.93554688 C87.43020562 153.67355893 93.37791441 154.9335499 99.4375 156.5 C106.61180125 158.28993466 113.5727521 159.80866574 121 160 C121 159.34 121 158.68 121 158 C120.36320312 157.90589844 119.72640625 157.81179688 119.0703125 157.71484375 C99.44759041 153.14619471 80.00218547 141.99610585 64 130 C63.20207031 129.42507813 62.40414062 128.85015625 61.58203125 128.2578125 C26.71106359 101.97316351 7.01813696 61.7676028 0.75 19.1875 C-0.03331266 12.7698331 -0.21646254 6.45779898 0 0 Z " fill="#FE6500" transform="translate(176,215)"/>
<path d="M0 0 C1.63279012 0.31631543 3.25651595 0.67965746 4.875 1.0625 C6.23238281 1.35833984 6.23238281 1.35833984 7.6171875 1.66015625 C10 3 10 3 11.2109375 6.01171875 C11.50195788 7.33529854 11.76261457 8.66575696 12 10 C12.13970215 10.73677979 12.2794043 11.47355957 12.42333984 12.23266602 C12.72165249 13.85868709 13.01077422 15.48641393 13.29199219 17.11547852 C20.52419166 58.71604593 40.54071976 96.18431438 69.61865234 126.55566406 C70.84508039 127.83801618 72.05829487 129.13297661 73.26953125 130.4296875 C79.07818276 136.48620354 85.51914813 141.60264545 92.20458984 146.64453125 C93.35542599 147.51337029 94.5020123 148.38788469 95.64306641 149.26953125 C137.64015357 181.66397865 193.97240391 195.27918018 246.3125 188.8125 C299.74971959 181.5986294 350.70131763 155.77191498 384.625 113.125 C408.4126882 81.82541027 425.9028666 46.49032183 430.49609375 6.95703125 C431 4 431 4 433.1875 2.125 C436.13921643 0.94431343 438.86711989 0.47664843 442 0 C441.11335574 46.50852189 417.33032114 92.81038926 387 127 C386.50709473 127.55606934 386.01418945 128.11213867 385.50634766 128.68505859 C369.43071916 146.70486089 350.93675227 161.02753351 330 173 C329.30438965 173.40202637 328.6087793 173.80405273 327.89208984 174.21826172 C279.03957495 202.19166163 217.61163518 208.65345809 163.5 194.1875 C129.87953862 184.61878544 99.03351786 168.86267033 73.25 145.0625 C71.27210442 143.24942906 69.24803183 141.52960986 67.1875 139.8125 C50.57053787 125.23504428 37.94798755 107.04179792 27 88 C26.59652344 87.30293945 26.19304687 86.60587891 25.77734375 85.88769531 C11.65553687 61.2211399 -0.54599981 28.77740189 0 0 Z " fill="#FC6400" transform="translate(207,449)"/>
<path d="M0 0 C32.05838287 22.72703645 51.10080329 57.89662482 57.74609375 96.109375 C61.58371065 122.46983313 59.33931311 152.51358596 45.8203125 175.94921875 C44.79627105 178.50932237 44.95509948 179.46945892 46 182 C57.44646265 199.65077719 77.04377416 212.84067104 97 219 C97 219.66 97 220.32 97 221 C94.79388434 221.81898266 92.5854166 222.63027543 90.375 223.4375 C89.14523437 223.88996094 87.91546875 224.34242188 86.6484375 224.80859375 C72.69582159 229.36485483 57.4486213 228.02572574 44.328125 221.71484375 C31.93986801 214.80896757 21.9447211 204.37983357 17 191 C17.36351562 190.56171875 17.72703125 190.1234375 18.1015625 189.671875 C33.3355793 170.45357688 37.09131603 144.63365844 34.78173828 120.7421875 C32.32105289 102.82113256 24.60533548 83.40441583 11.52812195 70.55360413 C7.83425161 66.73242319 6.320655 64.1058304 6.26985168 58.77182007 C6.29166 58.01825226 6.31346832 57.26468445 6.3359375 56.48828125 C6.33321335 55.68572906 6.3304892 54.88317688 6.3276825 54.05630493 C6.32287649 52.35180891 6.33022332 50.64724097 6.34890747 48.94284058 C6.39256494 44.54180984 6.33577609 40.14275927 6.26953125 35.7421875 C6.25738083 34.88678879 6.24523041 34.03139008 6.23271179 33.15007019 C6.00109784 21.63721491 3.77958349 10.86418394 0 0 Z " fill="#FD6500" transform="translate(325,392)"/>
<path d="M0 0 C1 2 1 2 0.51171875 3.77734375 C0.23972656 4.49019531 -0.03226563 5.20304687 -0.3125 5.9375 C-4.27627597 17.26774547 -5.29378969 29.41582021 -4.74609375 41.34765625 C-4.69775391 42.61287109 -4.64941406 43.87808594 -4.59960938 45.18164062 C-4.49130251 47.77448095 -4.3478907 50.36608635 -4.16992188 52.95507812 C-3.9528812 60.42203879 -4.61531246 64.44607577 -9.76953125 70.0390625 C-11.50365626 71.70252603 -13.24602676 73.35747805 -15 75 C-31.59279847 95.70875642 -34.80820985 121.47569049 -33 147 C-31.13960247 162.9442959 -24.83393801 176.74909299 -16 190 C-16.44822151 196.07589157 -20.45931939 200.30619585 -24 205 C-24.44214844 205.62261719 -24.88429688 206.24523437 -25.33984375 206.88671875 C-33.26016958 217.21443845 -46.3180298 223.98698886 -59 226 C-70.37598316 226.80517575 -85.69682027 227.27456286 -94.94140625 219.33203125 C-95.29074219 218.89246094 -95.64007813 218.45289063 -96 218 C-94.87078125 217.61521484 -94.87078125 217.61521484 -93.71875 217.22265625 C-74.89863149 210.4391912 -52.14260084 198.00669796 -43.07421875 179.06640625 C-42.95713386 175.80651642 -44.52713036 173.74212893 -46.125 170.9375 C-61.6040224 142.01361959 -59.85927498 104.41909432 -51.18212891 73.70629883 C-42.34249043 44.52781078 -24.22077974 18.45165701 0 0 Z " fill="#FD6500" transform="translate(527,393)"/>
<path d="M0 0 C0.92039062 0.72832031 1.84078125 1.45664063 2.7890625 2.20703125 C9.43438114 7.55136497 15.74705412 13.20665169 22 19 C19.48203676 21.70929783 17.11797784 23.54368884 13.3984375 24.3359375 C9.29150965 23.76070005 7.02854208 20.83475323 4.17773438 17.99731445 C-32.85787011 -18.75141035 -88.55993902 -35.44622894 -139.66552734 -35.30273438 C-192.35558131 -34.50406408 -245.52469825 -13.47530175 -283 24 C-285.09375 23.79296875 -285.09375 23.79296875 -287.5 23.1875 C-288.2940625 22.99542969 -289.088125 22.80335938 -289.90625 22.60546875 C-292 22 -292 22 -294 21 C-287.252898 4.3057419 -259.85431925 -9.50571029 -245 -18 C-243.95658447 -18.60303955 -243.95658447 -18.60303955 -242.89208984 -19.21826172 C-220.88351957 -31.82057173 -195.99441717 -39.90655424 -171 -44 C-169.83210938 -44.20496094 -168.66421875 -44.40992188 -167.4609375 -44.62109375 C-109.03583756 -53.24801787 -46.13400193 -36.81466916 0 0 Z " fill="#FC6400" transform="translate(564,252)"/>
<path d="M0 0 C6.80321183 2.50644646 10.29366204 7.64012141 14.63574219 13.26220703 C16.15668833 15.19958975 17.71834308 17.09885618 19.2890625 18.99609375 C19.86124512 19.68928711 20.43342773 20.38248047 21.02294922 21.09667969 C22.14468753 22.45469027 23.26859043 23.81091681 24.39501953 25.16503906 C34.25692779 37.20535348 34.25692779 37.20535348 34.5 43.125 C33.7152189 49.20705355 31.19560365 53.58357511 27 58 C21.30219266 62.26042944 16.55181115 65.52741632 9.1640625 65.3125 C0.47106211 64.05719308 -4.21505475 56.3041882 -9.1171875 49.77734375 C-12.31665143 45.52487786 -15.77036058 41.5111923 -19.29614258 37.52734375 C-24.65356869 31.3479536 -27.85829657 26.05625804 -27.50390625 17.7109375 C-26.44889484 12.03513969 -23.13766346 8.63994952 -18.66796875 5.2109375 C-12.15896416 0.77345779 -7.94923702 -0.79252212 0 0 Z " fill="#FB6400" transform="translate(604,622)"/>
<path d="M0 0 C7.09117936 2.92053132 12.63065809 7.73326802 17 14 C17.88951276 16.66853827 18.22066937 18.48541469 18.3125 21.25 C18.36857422 22.34054687 18.36857422 22.34054687 18.42578125 23.453125 C17.29697998 30.20522064 12.23341043 35.32954801 7.8125 40.25 C6.64966365 41.56388586 5.48821308 42.87899944 4.328125 44.1953125 C3.76158203 44.83758789 3.19503906 45.47986328 2.61132812 46.14160156 C0.35313982 48.7460454 -1.78945102 51.42897935 -3.9375 54.125 C-12.36908365 64.54048569 -12.36908365 64.54048569 -17.8828125 65.23828125 C-25.05099816 65.47555569 -29.77173903 63.78830328 -35.20703125 59.09375 C-40.05531698 54.41144161 -43.23699385 50.87055729 -43.625 43.9375 C-43.42229382 33.77516373 -34.81069923 26.59244986 -28.296875 19.55078125 C-25.8577733 16.84205096 -23.58559224 14.03649313 -21.3125 11.1875 C-15.23474516 3.67531001 -10.1516765 -1.58909222 0 0 Z " fill="#FB6400" transform="translate(258,619)"/>
<path d="M0 0 C4.1855866 2.56594657 6.75494705 5.63984114 8.3125 10.3125 C8.41416719 12.8242777 8.4541774 15.30088285 8.4375 17.8125 C8.43266602 18.57916992 8.42783203 19.34583984 8.42285156 20.13574219 C8.39628433 22.86154041 8.35461153 25.58689834 8.3125 28.3125 C8.29993164 29.43205078 8.28736328 30.55160156 8.27441406 31.70507812 C8.22618763 35.3250132 8.14776744 38.94326245 8.0625 42.5625 C8.04848145 43.72845703 8.03446289 44.89441406 8.02001953 46.09570312 C7.83504426 52.42351378 7.61812746 56.52935378 3.3125 61.3125 C-1.93902196 66.05167836 -6.12010459 66.53732079 -13 66.625 C-14.12051758 66.66850586 -14.12051758 66.66850586 -15.26367188 66.71289062 C-21.75075025 66.78693103 -25.1641347 64.56306905 -30 60.25 C-32.55311571 57.31864493 -32.81489144 54.7683673 -32.84863281 51.02807617 C-32.85824036 50.16675583 -32.8678479 49.30543549 -32.87774658 48.41801453 C-32.88199646 47.48987442 -32.88624634 46.56173431 -32.890625 45.60546875 C-32.89632507 44.64731766 -32.90202515 43.68916656 -32.90789795 42.70198059 C-32.91734545 40.67364607 -32.92388094 38.64529622 -32.92773438 36.61694336 C-32.93742998 33.52234931 -32.96845177 30.42842228 -33 27.33398438 C-33.0065313 25.3619831 -33.01178127 23.38997709 -33.015625 21.41796875 C-33.0279718 20.49590134 -33.0403186 19.57383392 -33.05303955 18.62382507 C-33.03207124 12.53981361 -32.25447681 8.09533622 -27.96875 3.44921875 C-27.3809375 2.97097656 -26.793125 2.49273438 -26.1875 2 C-25.5996875 1.50886719 -25.011875 1.01773438 -24.40625 0.51171875 C-18.42008062 -3.66499488 -6.45172062 -3.03035362 0 0 Z " fill="#FC6400" transform="translate(433.6875,685.6875)"/>
<path d="M0 0 C6.55542014 5.77501298 8.19945686 10.67435816 8.75048828 19.27001953 C8.84908389 21.40989115 8.90353725 23.54566324 8.9375 25.6875 C8.95522461 26.37755127 8.97294922 27.06760254 8.99121094 27.77856445 C8.98659947 30.91858622 8.78382562 33.03043993 7.23046875 35.7890625 C5.625 37.3125 5.625 37.3125 3.625 37.3125 C4.04386475 37.96847168 4.46272949 38.62444336 4.89428711 39.30029297 C6.78469972 42.26205315 8.67361784 45.22476355 10.5625 48.1875 C11.22185547 49.22003906 11.88121094 50.25257813 12.56054688 51.31640625 C13.18896484 52.30253906 13.81738281 53.28867187 14.46484375 54.3046875 C15.04613037 55.21589355 15.62741699 56.12709961 16.22631836 57.06591797 C17.625 59.3125 17.625 59.3125 18.625 61.3125 C13.27378069 62.74586231 8.13308397 63.72234815 2.625 64.3125 C2.10550781 63.466875 1.58601563 62.62125 1.05078125 61.75 C-2.73551286 55.59000472 -6.53196398 49.43733865 -10.375 43.3125 C-10.230625 44.38628906 -10.08625 45.46007812 -9.9375 46.56640625 C-9.74976571 48.00257356 -9.56227891 49.43877324 -9.375 50.875 C-9.27960938 51.57947266 -9.18421875 52.28394531 -9.0859375 53.00976562 C-8.50833583 57.48617855 -8.28010617 61.79911238 -8.375 66.3125 C-17.78502278 68.60862756 -17.78502278 68.60862756 -22.375 68.3125 C-23.938613 61.48328117 -25.28505701 54.63451253 -26.5390625 47.7421875 C-26.73599701 46.6617215 -26.93293152 45.58125549 -27.13583374 44.4680481 C-27.54862973 42.19747528 -27.96036636 39.92670964 -28.37109375 37.65576172 C-28.99954281 34.19002127 -29.63644854 30.72589833 -30.2734375 27.26171875 C-30.67500347 25.04697 -31.07606251 22.83212926 -31.4765625 20.6171875 C-31.6671524 19.58786102 -31.85774231 18.55853455 -32.05410767 17.49801636 C-32.97481495 12.34966629 -33.59715938 7.5428449 -33.375 2.3125 C-30.25342248 1.62911534 -27.12732892 0.96901728 -24 0.3125 C-22.69482422 0.02632812 -22.69482422 0.02632812 -21.36328125 -0.265625 C-6.63907068 -3.31953534 -6.63907068 -3.31953534 0 0 Z " fill="#FA6400" transform="translate(488.375,681.6875)"/>
<path d="M0 0 C14.49326294 2.92171879 28.07702702 7.73185868 41.82910156 13.10546875 C47.26230075 15.17918033 52.18498866 16.70897617 58 17 C58.83015625 17.04334473 59.6603125 17.08668945 60.515625 17.13134766 C78.55203404 17.83670008 92.81137053 14.90082289 109.40087891 8.01391602 C115.20324936 5.63001812 121.02146381 3.62812976 127.0625 1.9375 C128.19631104 1.6137439 128.19631104 1.6137439 129.35302734 1.28344727 C134.61537236 -0.12820921 134.61537236 -0.12820921 138 1 C136.99582031 1.60585938 135.99164063 2.21171875 134.95703125 2.8359375 C125.23276732 8.76784614 116.18071019 15.17517685 107.33984375 22.34667969 C94.68421794 32.60184747 84.58363777 36.16973642 68.25 36.25 C67.21617187 36.270625 66.18234375 36.29125 65.1171875 36.3125 C50.03399898 36.38848584 39.91660253 30.52403936 28.67456055 20.89111328 C20.38590044 13.83856244 11.20184889 8.01454881 1.94921875 2.3125 C1.30597656 1.879375 0.66273438 1.44625 0 1 C0 0.67 0 0.34 0 0 Z " fill="#FC6400" transform="translate(358,336)"/>
<path d="M0 0 C4.78966362 2.44272845 8.15821548 4.90339618 11.75 8.8125 C10.43139111 13.42763112 8.53644563 16.91147612 5.75 20.8125 C1.75 18.14583333 -2.25 15.47916667 -6.25 12.8125 C-8.79207971 12.47906449 -8.79207971 12.47906449 -11.25 12.8125 C-13.56748334 14.72164721 -13.56748334 14.72164721 -13.65234375 17.984375 C-13.15380889 22.72771636 -11.52719509 25.25615969 -8.8125 29.0625 C-2.75361151 37.85855863 -2.75361151 37.85855863 -2.83984375 43.6484375 C-3.99540181 49.74538192 -7.75321357 55.89891721 -12.4375 59.9375 C-16.61835873 62.72473915 -20.3176028 63.56932285 -25.25 62.8125 C-32.91250982 60.43594967 -40.81912039 56.90127714 -46.25 50.8125 C-47.37823543 47.74943978 -47.48663606 46.39620228 -46.25390625 43.35546875 C-45.77824219 42.57816406 -45.30257813 41.80085937 -44.8125 41 C-44.33941406 40.20980469 -43.86632812 39.41960938 -43.37890625 38.60546875 C-43.00636719 38.01378906 -42.63382812 37.42210937 -42.25 36.8125 C-38.99050777 38.33033222 -36.56269876 40.23881062 -33.82421875 42.5703125 C-29.85380274 45.70329585 -26.30981733 47.25895447 -21.25 46.8125 C-19.81512781 43.94275562 -19.95392457 42.00859628 -20.25 38.8125 C-21.89403366 35.44485574 -21.89403366 35.44485574 -24.125 32.1875 C-31.57256907 20.73586154 -31.57256907 20.73586154 -30.25 13.8125 C-27.67194563 7.65620964 -24.46806328 2.04336212 -19.25 -2.1875 C-11.92433921 -4.62938693 -6.72490367 -3.34612711 0 0 Z " fill="#FA6300" transform="translate(308.25,654.1875)"/>
<path d="M0 0 C2.99220268 1.36370299 5.29026529 2.94908083 7.75 5.125 C8.67039062 5.93324219 8.67039062 5.93324219 9.609375 6.7578125 C10.06828125 7.16773438 10.5271875 7.57765625 11 8 C9.86280581 11.41158256 8.95657056 12.11854601 6 14 C5.34 14 4.68 14 4 14 C3.566875 14.8971875 3.566875 14.8971875 3.125 15.8125 C2 18 2 18 0 21 C0.35888035 23.96076291 0.84658021 24.84658021 3 27 C7.96672758 27.32112463 12.3963804 25.94787078 16.875 23.9375 C22.27453219 21.64143725 27.19186358 21.09161847 33 22 C36.3125 23.6875 36.3125 23.6875 39 26 C39.53496094 26.40863281 40.06992187 26.81726563 40.62109375 27.23828125 C44.38776352 30.15586958 46.58147004 32.48882025 47.37109375 37.2265625 C47.60569603 45.69984482 45.01567684 51.78892156 39.32421875 58.0390625 C32.02351669 65.65882777 32.02351669 65.65882777 28 67 C25.51953125 65.41796875 25.51953125 65.41796875 22.8125 63.1875 C21.91144531 62.45917969 21.01039063 61.73085938 20.08203125 60.98046875 C19.39496094 60.32691406 18.70789063 59.67335938 18 59 C18 58.34 18 57.68 18 57 C19.57421875 55.703125 19.57421875 55.703125 21.6875 54.25 C25.51141164 51.45168456 28.36158138 48.95762793 31 45 C31.41990073 41.74723247 31.41990073 41.74723247 31 39 C27.20985171 37.10492585 23.73254035 37.7564191 19.81640625 39.05859375 C18.74261719 39.51363281 17.66882813 39.96867188 16.5625 40.4375 C9.56084184 43.22387417 4.22340285 45.18886541 -2.9453125 42.1484375 C-8.19487283 39.2142726 -13.82348867 34.71334225 -16 29 C-17.02318097 23.07020122 -15.95074931 18.52103448 -12.84375 13.41796875 C-9.07230648 8.47194431 -4.52926319 4.24370544 0 0 Z " fill="#FA6400" transform="translate(631,583)"/>
<path d="M0 0 C7.81207879 0.67273014 15.29802615 2.26505789 22.9375 4 C24.78311523 4.40992188 24.78311523 4.40992188 26.66601562 4.828125 C35.72421329 6.86210664 35.72421329 6.86210664 38 8 C37.85831863 9.43791516 37.71148957 10.8753237 37.5625 12.3125 C37.48128906 13.11300781 37.40007812 13.91351562 37.31640625 14.73828125 C37 17 37 17 36 20 C34.3745692 19.85904936 32.74965949 19.71207913 31.125 19.5625 C30.22007812 19.48128906 29.31515625 19.40007813 28.3828125 19.31640625 C26 19 26 19 24 18 C23.82984375 19.02996094 23.6596875 20.05992187 23.484375 21.12109375 C22.08645791 29.40061111 20.4698243 37.57327708 18.48803711 45.73291016 C17.0287973 51.7678038 15.79278161 57.83059784 14.61328125 63.92578125 C14.13793734 66.30855613 13.6203339 68.65200722 13 71 C11.06201479 70.69052329 9.12462574 70.37731166 7.1875 70.0625 C6.10855469 69.88847656 5.02960938 69.71445312 3.91796875 69.53515625 C1 69 1 69 -2 68 C-0.43529332 57.56214301 1.95829819 47.38612885 4.43359375 37.1328125 C6.26263356 29.45555526 7.82983413 21.80595118 9 14 C8.32888184 13.93288818 7.65776367 13.86577637 6.96630859 13.79663086 C6.19367676 13.71936768 5.42104492 13.64210449 4.625 13.5625 C3.40683594 13.44068359 3.40683594 13.44068359 2.1640625 13.31640625 C0 13 0 13 -2 12 C-1.34 8.04 -0.68 4.08 0 0 Z " fill="#F96300" transform="translate(354,675)"/>
<path d="M0 0 C2.475 5.445 2.475 5.445 5 11 C2.03 12.65 -0.94 14.3 -4 16 C-2.52443629 20.94270643 -0.43435241 25.25752192 1.9921875 29.77734375 C2.37939972 30.50691788 2.76661194 31.236492 3.16555786 31.98817444 C4.39774307 34.30693199 5.63639262 36.62216789 6.875 38.9375 C7.69961743 40.48872042 8.52383996 42.04015084 9.34765625 43.59179688 C10.14547957 45.0913341 10.94364551 46.5906891 11.7421875 48.08984375 C12.10899628 48.77860092 12.47580505 49.46735809 12.85372925 50.17698669 C14.60219065 53.44437819 16.38826845 56.67436813 18.26611328 59.86938477 C20 63 20 63 20 65 C15.71 66.98 11.42 68.96 7 71 C2.72893198 64.02540305 -1.1993495 56.95958045 -4.9375 49.6875 C-5.98242055 47.668933 -7.02799032 45.65070193 -8.07421875 43.6328125 C-8.57356934 42.66891602 -9.07291992 41.70501953 -9.58740234 40.71191406 C-12.33216333 35.44250428 -15.15638942 30.21662364 -18 25 C-18.92039062 25.30679688 -19.84078125 25.61359375 -20.7890625 25.9296875 C-23.859375 26.953125 -26.9296875 27.9765625 -30 29 C-31.65 25.37 -33.3 21.74 -35 18 C-27.00468552 13.330632 -18.931003 8.83592381 -10.75 4.5 C-9.91621826 4.05479004 -9.08243652 3.60958008 -8.22338867 3.15087891 C-7.44326416 2.74015137 -6.66313965 2.32942383 -5.859375 1.90625 C-4.81475098 1.35420898 -4.81475098 1.35420898 -3.74902344 0.79101562 C-2 0 -2 0 0 0 Z " fill="#FA6300" transform="translate(564,647)"/>
<path d="M0 0 C3.84419647 0.38606247 5.35947723 2.16628972 7.75 5.0625 C8.36359375 5.79597656 8.9771875 6.52945313 9.609375 7.28515625 C10.29773438 8.13400391 10.29773438 8.13400391 11 9 C9.43784986 13.17875162 6.35601916 15.51491619 3 18.25 C2.41331543 18.73670166 1.82663086 19.22340332 1.22216797 19.72485352 C-3.80184771 23.87914379 -8.89060544 27.95145431 -14 32 C-16.71017987 34.16436029 -19.41750022 36.33228857 -22.125 38.5 C-23.44005833 39.55214062 -24.75515874 40.60422866 -26.0703125 41.65625 C-27.03710938 42.4296875 -28.00390625 43.203125 -29 44 C-27.3611778 48.75092902 -24.87964567 51.5466574 -21.4609375 55.1328125 C-20 57 -20 57 -20 60 C-21.6796875 61.60546875 -21.6796875 61.60546875 -23.875 63.1875 C-24.59429687 63.71730469 -25.31359375 64.24710938 -26.0546875 64.79296875 C-28 66 -28 66 -30 66 C-31.62890625 64.19921875 -31.62890625 64.19921875 -33.5625 61.6875 C-37.32066845 56.85753214 -41.19006956 52.13869736 -45.1171875 47.4453125 C-46.73988691 45.33782323 -47.92994943 43.4216934 -49 41 C-43.46858604 35.91580674 -37.8600013 31.01163352 -31.9609375 26.359375 C-28.12569952 23.30332785 -24.34437341 20.18419085 -20.5625 17.0625 C-14.69034073 12.21656215 -8.80867957 7.38327657 -2.90625 2.57421875 C-1.1096146 1.14127035 -1.1096146 1.14127035 0 0 Z " fill="#FB6400" transform="translate(222,583)"/>
<path d="M0 0 C4.58194284 12.05369615 8.96695577 24.17397194 13.28857422 36.32324219 C14.3909462 39.41979269 15.49817121 42.51458292 16.60546875 45.609375 C17.30758675 47.58062409 18.00942067 49.55197439 18.7109375 51.5234375 C19.04209564 52.44724213 19.37325378 53.37104675 19.71444702 54.32284546 C20.16589584 55.59655502 20.16589584 55.59655502 20.62646484 56.89599609 C20.8926059 57.64271576 21.15874695 58.38943542 21.43295288 59.15878296 C22 61 22 61 22 63 C20.25531628 63.70088156 18.50398839 64.38524009 16.75 65.0625 C15.77546875 65.44535156 14.8009375 65.82820312 13.796875 66.22265625 C10.83191218 67.04671715 9.77996066 67.19564208 7 66 C5.8558197 63.99742126 5.8558197 63.99742126 4.94116211 61.33178711 C4.41557961 59.83904518 4.41557961 59.83904518 3.87937927 58.31614685 C3.51570755 57.23084183 3.15203583 56.1455368 2.77734375 55.02734375 C2.19721275 53.35992882 2.19721275 53.35992882 1.60536194 51.65882874 C0.36744885 48.09012334 -0.84786237 44.51418645 -2.0625 40.9375 C-2.88456039 38.55221436 -3.70811026 36.1674415 -4.53320312 33.78320312 C-6.05509588 29.38328946 -7.56652684 24.98002139 -9.07055664 20.57397461 C-10.23417933 17.16811582 -11.45009075 13.79742869 -12.75561523 10.44360352 C-14 7 -14 7 -14 4 C-12.23141309 3.32739649 -10.46003984 2.66211605 -8.6875 2 C-7.70136719 1.62875 -6.71523438 1.2575 -5.69921875 0.875 C-3 0 -3 0 0 0 Z " fill="#FA6300" transform="translate(519,668)"/>
<path d="M0 0 C3.375 0.6875 3.375 0.6875 4.375 1.6875 C4.4884515 4.47573738 4.53918263 7.23827345 4.54296875 10.02734375 C4.54629715 10.86463516 4.54962555 11.70192657 4.55305481 12.56459045 C4.55812756 14.33919728 4.56046303 16.11381367 4.56030273 17.88842773 C4.56248797 20.61002256 4.58063633 23.33121143 4.59960938 26.05273438 C4.60254342 27.77343611 4.60452814 29.49413977 4.60546875 31.21484375 C4.61265427 32.03258774 4.61983978 32.85033173 4.62724304 33.69285583 C4.60382204 39.45867796 4.60382204 39.45867796 2.375 41.6875 C0.5 41.953125 0.5 41.953125 -1.625 41.9375 C-2.32625 41.94265625 -3.0275 41.9478125 -3.75 41.953125 C-5.625 41.6875 -5.625 41.6875 -7.625 39.6875 C-7.80327589 36.83810738 -7.85841035 34.09784978 -7.8125 31.25 C-7.80387939 30.41412354 -7.79525879 29.57824707 -7.78637695 28.71704102 C-7.74914277 26.03992849 -7.69025876 23.36406875 -7.625 20.6875 C-7.60566406 19.78870117 -7.58632813 18.88990234 -7.56640625 17.96386719 C-7.50188445 15.34978529 -7.4124845 12.73794508 -7.3125 10.125 C-7.29018311 9.31039307 -7.26786621 8.49578613 -7.24487305 7.65649414 C-7.13671875 5.37109375 -7.13671875 5.37109375 -6.625 1.6875 C-3.625 -0.3125 -3.625 -0.3125 0 0 Z " fill="#27221D" transform="translate(422.625,697.3125)"/>
<path d="M0 0 C3.67209607 1.26863961 5.47253881 3.65617489 7.8046875 6.61328125 C8.2697168 7.18763916 8.73474609 7.76199707 9.21386719 8.35375977 C10.19944149 9.5748355 11.17978788 10.80014653 12.15527344 12.02929688 C13.69611251 13.94621518 15.2792189 15.8200876 16.875 17.69140625 C17.89417518 18.91457696 18.91243201 20.13851356 19.9296875 21.36328125 C20.66469482 22.21249146 20.66469482 22.21249146 21.41455078 23.07885742 C23.73131243 25.93417562 24.68178879 27.48398546 24.6640625 31.2109375 C23.6796875 33.92578125 23.6796875 33.92578125 20.6796875 35.92578125 C18.32421875 36.41796875 18.32421875 36.41796875 15.6796875 35.92578125 C13.66280559 34.00235724 12.05981697 32.2290482 10.3671875 30.05078125 C9.89079834 29.46232422 9.41440918 28.87386719 8.92358398 28.26757812 C7.49513019 26.49753235 6.08685171 24.71276868 4.6796875 22.92578125 C3.90367187 21.96414063 3.12765625 21.0025 2.328125 20.01171875 C0.43140198 17.66035051 -1.44689291 15.29571962 -3.3203125 12.92578125 C-4.05378906 12.06210937 -4.78726563 11.1984375 -5.54296875 10.30859375 C-7.3203125 7.92578125 -7.3203125 7.92578125 -7.3203125 5.30078125 C-5.79268109 1.67265666 -4.06635181 -0.13006849 0 0 Z " fill="#26211D" transform="translate(598.3203125,636.07421875)"/>
<path d="M0 0 C2.5 0.375 2.5 0.375 4.375 1.4375 C5.7633079 3.82847471 5.91292384 5.5927753 5.390625 8.30078125 C3.77326015 12.06753886 0.85979726 14.74910957 -1.9453125 17.6796875 C-4.56175898 20.44015856 -6.97551751 23.29981661 -9.375 26.25 C-10.09429687 27.13429688 -10.81359375 28.01859375 -11.5546875 28.9296875 C-12.77890116 30.46855848 -13.95994825 32.04380813 -15.07421875 33.6640625 C-16.5 35.375 -16.5 35.375 -19.4375 35.875 C-22.5 35.375 -22.5 35.375 -24.9375 33.625 C-26.5 31.375 -26.5 31.375 -26.33984375 29.54296875 C-25.23102048 26.68065752 -23.6069738 24.7827181 -21.625 22.4375 C-20.820625 21.47972656 -20.01625 20.52195312 -19.1875 19.53515625 C-18.754375 19.0261377 -18.32125 18.51711914 -17.875 17.99267578 C-16.42951078 16.29207004 -14.99527964 14.58241707 -13.5625 12.87109375 C-3.15323713 0.47298557 -3.15323713 0.47298557 0 0 Z " fill="#25211D" transform="translate(255.5,633.625)"/>
<path d="M0 0 C1.68949132 1.68949132 1.6471655 3.94873919 2.0625 6.25 C2.23910156 7.20390625 2.41570312 8.1578125 2.59765625 9.140625 C2.97765436 11.84119412 3.22030545 14.28133699 3 17 C2.34 17.66 1.68 18.32 1 19 C-1.31 19 -3.62 19 -6 19 C-6.99 13.06 -7.98 7.12 -9 1 C-5.68024318 0.1700608 -3.35107416 -0.18113914 0 0 Z " fill="#24211E" transform="translate(480,693)"/>
</svg>
